<?xml version="1.0" standalone="no"?><!DOCTYPE svg PUBLIC "-//W3C//DTD SVG 1.1//EN" "http://www.w3.org/Graphics/SVG/1.1/DTD/svg11.dtd"><svg t="1483932405421" class="icon" style="" viewBox="0 0 1024 1024" version="1.1" xmlns="http://www.w3.org/2000/svg" p-id="2598" xmlns:xlink="http://www.w3.org/1999/xlink" width="200" height="200"><defs><style type="text/css"></style></defs><path d="M522.694941 2.004229C496.366896 2.158748 475.286056 23.479959 475.01921 50.732827 474.761565 77.217716 474.964 103.707217 474.968601 130.194412 474.973202 157.449587 474.602838 184.711679 475.07902 211.957628 475.552902 239.025995 497.098422 259.099531 524.42714 258.864294 550.644767 258.638282 572.006255 237.854425 572.146579 211.41566 572.436429 157.673291 572.459433 103.928616 572.123575 50.188554 571.951046 22.509031 550.2537 1.842792 522.694941 2.004229" p-id="2599"></path><path d="M326.793348 90.076865C318.468211 75.87733 305.146611 68.815615 288.489434 68.73259 253.346266 68.744122 231.908865 105.697045 249.502304 136.912038 275.469187 182.98615 301.893849 228.80427 328.48874 274.520914 341.446878 296.79691 368.536355 303.847094 390.307315 291.404916 411.620493 279.223343 419.984738 252.443255 407.696016 230.554708 381.241449 183.438173 354.124366 136.690638 326.793348 90.076865" p-id="2600"></path><path d="M98.08464 324.612271C142.408693 350.40298 186.87537 375.946923 231.284538 401.592339 238.001698 405.469133 244.9696 408.497229 252.974983 407.999081 273.11266 408.153599 288.948593 396.06197 294.299318 376.45199 299.286579 358.175018 291.612454 339.702016 274.053522 329.453074 229.435019 303.406371 184.699194 277.562617 139.949568 251.741926 117.419478 238.741637 92.131212 244.714806 80.118538 265.64165 67.914931 286.9029 75.147379 311.266045 98.08464 324.612271" p-id="2601"></path><path d="M132.245998 560.578931C158.647656 560.5674 185.051616 560.784187 211.450973 560.502824 234.852914 560.253751 250.603733 544.089297 250.242571 521.368196 249.899811 499.763316 233.334652 483.997843 210.671139 483.97478 159.013419 483.921737 107.358001 483.917125 55.700282 484.018599 31.532309 484.06703 14.980951 499.991634 15.128177 522.705816 15.273102 544.859582 31.707139 560.447476 55.334519 560.560481 80.972445 560.685018 106.608071 560.590463 132.245998 560.578931" p-id="2602"></path><path d="M283.9496 660.789318C274.573181 644.50494 254.012231 638.215817 237.09051 647.853604 190.551175 674.35925 144.301689 701.386105 98.072908 728.433718 86.971191 734.930402 81.760791 745.287738 81.602064 753.795465 81.652673 784.350872 108.822664 801.753779 131.994564 788.875721 179.138905 762.679113 225.705844 735.414714 272.13016 707.947365 289.302625 697.788367 293.620471 677.585683 283.9496 660.789318" p-id="2603"></path><path d="M375.850008 762.442262C361.573742 758.38558 348.203834 763.895194 339.970714 778.113179 314.06364 822.847364 288.317595 867.678413 262.695772 912.576341 252.682142 930.12454 256.825157 948.258525 272.456356 957.601113 288.487824 967.181245 306.70467 961.660101 317.176077 943.602222 342.728889 899.541458 368.076966 855.360771 393.546964 811.251577 396.854935 805.522871 399.240447 799.568152 399.295656 796.325575 399.314059 778.507546 390.031957 766.471266 375.850008 762.442262" p-id="2604"></path><path d="M523.30063 806.744026C506.896498 806.833969 495.96041 818.655769 495.84999 836.907372 495.695864 862.255283 495.810884 887.6055 495.810884 912.955718L495.739571 912.955718C495.739571 939.071608 495.606148 965.19211 495.785579 991.308001 495.909801 1009.580359 506.841288 1021.381403 523.231618 1021.517471 540.176344 1021.655846 551.291863 1009.693366 551.33557 990.775258 551.452891 939.694293 551.471294 888.611022 551.406883 837.527751 551.383879 818.7411 540.178644 806.651776 523.30063 806.744026" p-id="2605"></path><path d="M700.483898 780.628136C693.005307 767.805428 678.579517 764.604363 666.697965 771.751409 655.239687 778.644767 651.140379 792.376135 658.184195 804.774496 684.461631 851.0308 711.100231 897.079545 737.79404 943.096001 742.30742 950.872651 749.452452 955.060787 758.718453 954.9178 777.275757 954.779426 789.242423 935.589182 779.946518 919.030361 753.906022 872.642599 727.283525 826.580018 700.483898 780.628136" p-id="2606"></path><path d="M940.423835 739.439337C895.133615 713.185073 849.824993 686.967708 804.484165 660.803387 799.777552 658.086633 794.739682 656.463038 789.124413 657.842172 780.001037 660.081533 774.181032 665.87712 772.612162 674.940653 770.728137 685.814587 776.456125 693.148438 785.501286 698.365158 815.291431 715.546664 845.060871 732.760459 874.841812 749.955802 890.065841 758.744893 905.078233 767.930656 920.585211 776.187005 935.257143 783.998248 951.62447 774.152899 951.640572 758.152189 951.57156 749.713648 947.545865 743.567511 940.423835 739.439337" p-id="2607"></path><path d="M989.291404 504.807299C964.42181 504.71505 939.552216 504.781931 914.680322 504.781931L914.680322 504.728887C889.428862 504.728887 864.175102 504.657394 838.923642 504.758868 825.47322 504.809606 817.960123 511.09181 817.759988 522.046462 817.557553 533.178694 824.829109 539.566986 838.419855 539.596967 888.925075 539.709973 939.430295 539.730729 989.935515 539.670767 1003.296222 539.65693 1011.108371 533.197144 1011.320007 522.537692 1011.533944 511.691433 1003.206506 504.860343 989.291404 504.807299" p-id="2608"></path><path d="M801.340211 377.64547C846.421096 351.617218 891.478975 325.547453 936.504649 299.424644 941.367688 296.601802 944.744672 292.570491 944.627351 286.479705 944.50313 275.44664 933.44282 269.060655 923.146243 274.953104 877.632884 300.999807 832.289756 327.341709 786.999536 353.77586 779.339213 358.245358 776.482119 365.295542 781.427973 373.332797 786.263409 381.187859 793.51426 382.163399 801.340211 377.64547" p-id="2609"></path><path d="M679.047187 262.541829C684.229982 262.295062 687.2343 259.130898 689.640515 254.889717 694.556465 246.229776 699.665646 237.682842 704.634504 229.052882 725.085036 193.534442 745.55627 158.029839 765.917086 122.460661 771.000963 113.581627 768.942108 105.798059 761.150662 103.930002 753.476538 102.089621 750.24448 107.61999 747.097537 113.090397 724.174079 152.92843 701.227617 192.757239 678.31106 232.60219 675.447066 237.581367 672.29092 242.454458 670.015828 247.701159 666.889588 254.898943 671.685916 262.350411 679.047187 262.541829" p-id="2610"></path></svg>