<?xml version="1.0" standalone="no"?>
<!DOCTYPE svg PUBLIC "-//W3C//DTD SVG 1.1//EN" "http://www.w3.org/Graphics/SVG/1.1/DTD/svg11.dtd" >
<svg xmlns="http://www.w3.org/2000/svg">
<metadata>
Created by FontForge 20120731 at Mon Jan  9 10:55:05 2017
 By admin
</metadata>
<defs>
<font id="iconfont" horiz-adv-x="1024" >
  <font-face 
    font-family="iconfont"
    font-weight="500"
    font-stretch="normal"
    units-per-em="1024"
    panose-1="2 0 6 3 0 0 0 0 0 0"
    ascent="896"
    descent="-128"
    x-height="792"
    bbox="0 -212 4608 896"
    underline-thickness="0"
    underline-position="0"
    unicode-range="U+0078-E895"
  />
<missing-glyph 
 />
    <glyph glyph-name=".notdef" 
 />
    <glyph glyph-name=".notdef" 
 />
    <glyph glyph-name=".null" horiz-adv-x="0" 
 />
    <glyph glyph-name="nonmarkingreturn" horiz-adv-x="341" 
 />
    <glyph glyph-name="x" unicode="x" horiz-adv-x="1001" 
d="M281 543q-27 -1 -53 -1h-83q-18 0 -36.5 -6t-32.5 -18.5t-23 -32t-9 -45.5v-76h912v41q0 16 -0.5 30t-0.5 18q0 13 -5 29t-17 29.5t-31.5 22.5t-49.5 9h-133v-97h-438v97zM955 310v-52q0 -23 0.5 -52t0.5 -58t-10.5 -47.5t-26 -30t-33 -16t-31.5 -4.5q-14 -1 -29.5 -0.5
t-29.5 0.5h-32l-45 128h-439l-44 -128h-29h-34q-20 0 -45 1q-25 0 -41 9.5t-25.5 23t-13.5 29.5t-4 30v167h911zM163 247q-12 0 -21 -8.5t-9 -21.5t9 -21.5t21 -8.5q13 0 22 8.5t9 21.5t-9 21.5t-22 8.5zM316 123q-8 -26 -14 -48q-5 -19 -10.5 -37t-7.5 -25t-3 -15t1 -14.5
t9.5 -10.5t21.5 -4h37h67h81h80h64h36q23 0 34 12t2 38q-5 13 -9.5 30.5t-9.5 34.5q-5 19 -11 39h-368zM336 498v228q0 11 2.5 23t10 21.5t20.5 15.5t34 6h188q31 0 51.5 -14.5t20.5 -52.5v-227h-327z" />
    <glyph glyph-name="loada" unicode="&#xe618;" 
d="M512 620zM384 620q0 53 37.5 90.5t90.5 37.5t90.5 -37.5t37.5 -90.5t-37.5 -90.5t-90.5 -37.5t-90.5 37.5t-37.5 90.5zM192 300zM96 300q0 40 28 68t68 28t68 -28t28 -68t-28 -68t-68 -28t-68 28t-28 68zM736 524zM720 524q0 7 4.5 11.5t11.5 4.5t11.5 -4.5t4.5 -11.5
t-4.5 -11.5t-11.5 -4.5t-11.5 4.5t-4.5 11.5zM360 597q-30 30 -72 30t-72 -30t-30 -73t30 -73t72 -30t72 30t30 73t-30 73zM832 300zM800 300q0 13 9.5 22.5t22.5 9.5t22.5 -9.5t9.5 -22.5t-9.5 -22.5t-22.5 -9.5t-22.5 9.5t-9.5 22.5zM738 74zM690 74q0 20 14 34t34 14
t34 -14t14 -34t-14 -34t-34 -14t-34 14t-14 34zM512 -20zM448 -20q0 26 19 45t45 19t45 -19t19 -45t-19 -45t-45 -19t-45 19t-19 45zM288 76zM208 76q0 33 23.5 56.5t56.5 23.5t56.5 -23.5t23.5 -56.5t-23.5 -56.5t-56.5 -23.5t-56.5 23.5t-23.5 56.5z" />
    <glyph glyph-name="load" unicode="&#xe638;" 
d="M894 -84h-381v0v0h-382q-21 0 -35.5 14t-14.5 34v239q0 20 14.5 34t35.5 14t35.5 -14t14.5 -34v-191h664v191q0 20 14.5 34t35 14t35 -14t14.5 -34v-239q0 -20 -14.5 -34t-35.5 -14zM699 347l-149 -160v0q-15 -16 -37 -16t-37 16v0l-150 160v0q-12 14 -12 32
q0 20 14.5 34t34.5 14q23 0 37 -16v0l63 -67v291v0q0 20 14.5 34t35 14t35 -14t14.5 -34v0v-291l63 67v0q15 16 37 16q21 0 35.5 -14t14.5 -34q0 -18 -13 -32v0z" />
    <glyph glyph-name="cmstubiaozitihua22" unicode="&#xe764;" 
d="M567 465q0 -23 -16 -39t-39 -16v0q-23 0 -39 16t-16 39v164q0 23 16 39t39 16v0q23 0 39 -16t16 -39v-164zM512 190q-23 0 -39 -16t-16 -39v-164q0 -23 16 -39t39 -16t39 16t16 39v164q0 23 -16 39t-39 16v0zM841 355h-164q-23 0 -39 -16t-16 -39t16 -39t39 -16h164
q23 0 39 16t16 39t-16 39t-39 16v0zM347 355h-164q-23 0 -39 -16t-16 -39t16 -39t39 -16h164q23 0 39 16t16 39t-16 39t-39 16v0zM667 378q-16 -16 -38.5 -16t-38.5 16v0q-17 16 -17 38.5t17 38.5l116 117q16 16 38.5 16t39.5 -16v0q16 -16 16 -39t-16 -39zM434 222
q-16 16 -38.5 16t-38.5 -16l-117 -116q-16 -16 -16 -39t16 -39t39 -16t39 16l116 117q16 16 16 38.5t-16 38.5v0zM784 106l-117 116q-16 17 -38.5 17t-39 -16.5t-16.5 -39t17 -38.5l116 -117q16 -16 38.5 -16t39 16.5t16.5 39t-16 38.5v0zM434 455l-116 117q-16 16 -39 16
t-39 -16.5t-16 -39t16 -38.5l117 -116q16 -17 38.5 -17t38.5 16.5t16 39t-16 38.5v0z" />
    <glyph glyph-name="cmstubiaozitihua21" unicode="&#xe765;" 
d="M896 351q-4 24 -9 44q-8 29 -19 55q-23 54 -62 100q-42 50 -97 82q-54 32 -117 45q-33 7 -64 7q-25 0 -51 -2q-65 -7 -126 -35q-52 -24 -94 -62q-43 -38 -73 -87q-34 -55 -47 -115q-11 -51 -9 -100q3 -51 17 -95q10 -32 22 -58q14 -27 32 -53q36 -50 85 -86
q51 -37 112 -57q63 -20 129 -18q65 2 124 25q58 22 106 62q21 18 43 45q21 25 35 51q12 22 22 49q6 15 8 25q3 11 7 28q4 24 2 44q-4 -17 -4 -19q-3 -10 -7 -21q-4 -12 -19 -44q-11 -25 -29 -53q-9 -15 -17 -25q-7 -10 -20 -24q-22 -24 -47 -42q-26 -20 -55 -33
q-58 -28 -124 -34q-67 -6 -130 13q-61 18 -112 56q-49 38 -83 89q-34 52 -47 115q-4 15 -6 32q-1 17 -2 28q-1 30 4 59q10 65 41 120q28 49 72 88q44 38 98 60q30 12 64 19q20 3 33 4q3 1 8.5 1h8.5h3h3q58 1 110 -15q58 -18 106 -57q49 -39 80 -95q26 -47 38 -100
q2 -10 4 -24q2 -13 12 -19t22 -2.5t17 14.5q3 8 2 15z" />
    <glyph glyph-name="cmstubiaozitihua20" unicode="&#xe766;" 
d="M544 588zM416 588q0 53 37.5 90.5t90.5 37.5t90.5 -37.5t37.5 -90.5t-37.5 -90.5t-90.5 -37.5t-90.5 37.5t-37.5 90.5zM224 268zM128 268q0 40 28 68t68 28t68 -28t28 -68t-28 -68t-68 -28t-68 28t-28 68zM768 492zM752 492q0 7 4.5 11.5t11.5 4.5t11.5 -4.5t4.5 -11.5
t-4.5 -11.5t-11.5 -4.5t-11.5 4.5t-4.5 11.5zM392 565q-30 30 -72 30t-72 -30t-30 -73t30 -73t72 -30t72 30t30 73t-30 73zM864 268zM832 268q0 13 9.5 22.5t22.5 9.5t22.5 -9.5t9.5 -22.5t-9.5 -22.5t-22.5 -9.5t-22.5 9.5t-9.5 22.5zM770 42zM722 42q0 20 14 34t34 14
t34 -14t14 -34t-14 -34t-34 -14t-34 14t-14 34zM544 -52zM480 -52q0 26 19 45t45 19t45 -19t19 -45t-19 -45t-45 -19t-45 19t-19 45zM320 44zM240 44q0 33 23.5 56.5t56.5 23.5t56.5 -23.5t23.5 -56.5t-23.5 -56.5t-56.5 -23.5t-56.5 23.5t-23.5 56.5z" />
    <glyph glyph-name="cmstubiaozitihua19" unicode="&#xe767;" 
d="M864 332h-160q-13 0 -22.5 -9.5t-9.5 -22.5t9.5 -22.5t22.5 -9.5h160q13 0 22.5 9.5t9.5 22.5t-9.5 22.5t-22.5 9.5zM352 300q0 13 -9.5 22.5t-22.5 9.5h-160q-13 0 -22.5 -9.5t-9.5 -22.5t9.5 -22.5t22.5 -9.5h160q13 0 22.5 9.5t9.5 22.5zM512 140q-13 0 -22.5 -9.5
t-9.5 -22.5v-160q0 -13 9.5 -22.5t22.5 -9.5t22.5 9.5t9.5 22.5v160q0 13 -9.5 22.5t-22.5 9.5zM512 684q-13 0 -22.5 -9.5t-9.5 -22.5v-160q0 -13 9.5 -22.5t22.5 -9.5t22.5 9.5t9.5 22.5v160q0 13 -9.5 22.5t-22.5 9.5zM650.5 380q6.5 -12 19.5 -15t24 3l139 80
q12 7 15 19.5t-3.5 24.5t-19 15t-24.5 -3l-139 -80q-11 -7 -14.5 -19.5t3 -24.5zM373.5 220q-6.5 12 -19.5 15t-24 -3l-139 -80q-12 -7 -15 -19.5t3.5 -24.5t19 -15t24.5 3l139 80q11 7 14.5 19.5t-3 24.5zM636 150q-7 11 -19.5 14.5t-24.5 -3t-15 -19.5t3 -24l80 -139
q7 -11 19.5 -14.5t24.5 3t15 19.5t-3 24zM364 621q-7 11 -19.5 14.5t-24.5 -3t-15 -19.5t3 -24l80 -139q7 -11 19.5 -14.5t24.5 3t15 19.5t-3 24zM592 438.5q12 -6.5 24.5 -3t19.5 14.5l80 139q6 12 3 24.5t-15 19t-24.5 3.5t-19.5 -15l-80 -139q-6 -11 -3 -24t15 -19.5z
M432 161.5q-12 6.5 -24.5 3t-19.5 -14.5l-80 -139q-6 -12 -3 -24.5t15 -19t24.5 -3.5t19.5 15l80 139q6 11 3 24t-15 19.5zM833 152l-139 80q-11 6 -24 3t-19.5 -15t-3 -24.5t14.5 -19.5l139 -80q11 -6 24 -3t20 15q6 12 2.5 24.5t-14.5 19.5zM191 448l139 -80q11 -6 24 -3
t19.5 15t3 24.5t-14.5 19.5l-139 80q-11 6 -24 3t-19.5 -15t-3 -24.5t14.5 -19.5z" />
    <glyph glyph-name="load2" unicode="&#xe617;" 
d="M960 320q-27 0 -45.5 18.5t-18.5 45.5q0 159 -112.5 271.5t-271.5 112.5q-26 0 -45 19t-19 45t19 45t45 19q104 0 199 -40.5t163.5 -109t109 -163.5t40.5 -199q0 -27 -18.5 -45.5t-45.5 -18.5z" />
    <glyph glyph-name="load1" unicode="&#xe619;" 
d="M512 -128q-104 0 -199 40.5t-163.5 109t-109 163.5t-40.5 199t40.5 199t109 163.5t163.5 109t199 40.5t199 -40.5t163.5 -109t109 -163.5t40.5 -199t-40.5 -199t-109 -163.5t-163.5 -109t-199 -40.5zM512 768q-159 0 -271.5 -112.5t-112.5 -271.5t112.5 -271.5
t271.5 -112.5t271.5 112.5t112.5 271.5t-112.5 271.5t-271.5 112.5z" />
    <glyph glyph-name="loada1" unicode="&#xe7f7;" 
d="M512 620zM384 620q0 53 37.5 90.5t90.5 37.5t90.5 -37.5t37.5 -90.5t-37.5 -90.5t-90.5 -37.5t-90.5 37.5t-37.5 90.5zM192 300zM96 300q0 40 28 68t68 28t68 -28t28 -68t-28 -68t-68 -28t-68 28t-28 68zM736 524zM720 524q0 7 4.5 11.5t11.5 4.5t11.5 -4.5t4.5 -11.5
t-4.5 -11.5t-11.5 -4.5t-11.5 4.5t-4.5 11.5zM360 597q-30 30 -72 30t-72 -30t-30 -73t30 -73t72 -30t72 30t30 73t-30 73zM832 300zM800 300q0 13 9.5 22.5t22.5 9.5t22.5 -9.5t9.5 -22.5t-9.5 -22.5t-22.5 -9.5t-22.5 9.5t-9.5 22.5zM738 74zM690 74q0 20 14 34t34 14
t34 -14t14 -34t-14 -34t-34 -14t-34 14t-14 34zM512 -20zM448 -20q0 26 19 45t45 19t45 -19t19 -45t-19 -45t-45 -19t-45 19t-19 45zM288 76zM208 76q0 33 23.5 56.5t56.5 23.5t56.5 -23.5t23.5 -56.5t-23.5 -56.5t-56.5 -23.5t-56.5 23.5t-23.5 56.5z" />
    <glyph glyph-name="loadb" unicode="&#xe7f8;" 
d="M576 492q0 -27 -18.5 -45.5t-45.5 -18.5v0q-27 0 -45.5 18.5t-18.5 45.5v192q0 27 18.5 45.5t45.5 18.5v0q27 0 45.5 -18.5t18.5 -45.5v-192zM512 172q-27 0 -45.5 -18.5t-18.5 -45.5v-192q0 -27 18.5 -45.5t45.5 -18.5t45.5 18.5t18.5 45.5v192q0 27 -18.5 45.5
t-45.5 18.5v0zM896 364h-192q-27 0 -45.5 -18.5t-18.5 -45.5t18.5 -45.5t45.5 -18.5h192q27 0 45.5 18.5t18.5 45.5t-18.5 45.5t-45.5 18.5v0zM320 364h-192q-27 0 -45.5 -18.5t-18.5 -45.5t18.5 -45.5t45.5 -18.5h192q27 0 45.5 18.5t18.5 45.5t-18.5 45.5t-45.5 18.5v0z
M693 391q-19 -19 -45.5 -19t-45.5 19v0q-18 18 -18 44.5t18 45.5l136 136q19 19 45.5 19t45.5 -19v0q19 -19 19 -45.5t-19 -45.5zM421 209q-18 19 -44.5 19t-45.5 -19l-136 -135q-19 -19 -19 -45.5t19 -45.5t45.5 -19t45.5 19l135 136q19 19 19 45.5t-19 44.5v0zM829 74
l-136 136q-19 18 -45.5 18t-45 -18.5t-18.5 -45t18 -45.5l136 -136q19 -19 45.5 -19t45.5 19t19 45.5t-19 45.5v0zM421 481l-135 136q-19 19 -45.5 19t-45.5 -19t-19 -45.5t19 -45.5l136 -136q19 -18 45.5 -18t45 18.5t18.5 45t-19 45.5v0z" />
    <glyph glyph-name="loadc" unicode="&#xe7f9;" 
d="M960 360q-5 28 -11 51q-9 34 -22 64q-26 64 -71 117q-49 58 -114 96q-63 37 -136 52q-39 8 -75 8q-30 0 -59 -2q-77 -8 -148 -41q-60 -29 -110 -73t-84 -100q-40 -65 -55 -135q-13 -60 -10 -116q2 -61 19 -112q11 -37 26 -67q16 -32 37 -62q42 -58 100 -101
q59 -43 129 -66q74 -23 151 -21q76 3 145 29q68 27 123 73q25 21 50 52q25 30 42 60q14 26 25 57q7 17 10 29t7 32q5 28 3 52q-3 -18 -5 -22q-3 -12 -8 -25q-4 -13 -22 -51q-13 -30 -33 -62q-11 -18 -21 -30q-8 -11 -23 -28q-25 -27 -54 -48q-31 -23 -64 -39
q-68 -33 -145 -40q-79 -6 -153 16q-71 21 -130 65q-57 44 -96 104q-40 60 -56 134q-4 18 -6 38q-2 19 -3 33q-1 34 5 68q11 76 48 140q33 58 84 103t114 70q35 14 74 22q23 4 39 5q4 0 10 0.5t9 0.5h4.5h3.5q68 1 129 -18q67 -21 123 -66q57 -46 94 -111q30 -55 43 -117
q2 -9 6 -28q2 -14 13 -21q12 -8 25.5 -4t19.5 17q4 9 3 18z" />
    <glyph glyph-name="loadd" unicode="&#xe7fa;" 
d="M864 332h-160q-13 0 -22.5 -9.5t-9.5 -22.5t9.5 -22.5t22.5 -9.5h160q13 0 22.5 9.5t9.5 22.5t-9.5 22.5t-22.5 9.5zM352 300q0 13 -9.5 22.5t-22.5 9.5h-160q-13 0 -22.5 -9.5t-9.5 -22.5t9.5 -22.5t22.5 -9.5h160q13 0 22.5 9.5t9.5 22.5zM512 140q-13 0 -22.5 -9.5
t-9.5 -22.5v-160q0 -13 9.5 -22.5t22.5 -9.5t22.5 9.5t9.5 22.5v160q0 13 -9.5 22.5t-22.5 9.5zM512 684q-13 0 -22.5 -9.5t-9.5 -22.5v-160q0 -13 9.5 -22.5t22.5 -9.5t22.5 9.5t9.5 22.5v160q0 13 -9.5 22.5t-22.5 9.5zM650.5 380q6.5 -12 19.5 -15t24 3l139 80
q12 7 15 19.5t-3.5 24.5t-19 15t-24.5 -3l-139 -80q-11 -7 -14.5 -19.5t3 -24.5zM373.5 220q-6.5 12 -19.5 15t-24 -3l-139 -80q-12 -7 -15 -19.5t3.5 -24.5t19 -15t24.5 3l139 80q11 7 14.5 19.5t-3 24.5zM636 150q-7 11 -19.5 14.5t-24.5 -3t-15 -19.5t3 -24l80 -139
q7 -11 19.5 -14.5t24.5 3t15 19.5t-3 24zM364 621q-7 11 -19.5 14.5t-24.5 -3t-15 -19.5t3 -24l80 -139q7 -11 19.5 -14.5t24.5 3t15 19.5t-3 24zM592 438.5q12 -6.5 24.5 -3t19.5 14.5l80 139q6 12 3 24.5t-15 19t-24.5 3.5t-19.5 -15l-80 -139q-6 -11 -3 -24t15 -19.5z
M432 161.5q-12 6.5 -24.5 3t-19.5 -14.5l-80 -139q-6 -12 -3 -24.5t15 -19t24.5 -3.5t19.5 15l80 139q6 11 3 24t-15 19.5zM833 152l-139 80q-11 6 -24 3t-19.5 -15t-3 -24.5t14.5 -19.5l139 -80q11 -6 24 -3t19.5 15t3 24.5t-14.5 19.5zM191 448l139 -80q11 -6 24 -3
t19.5 15t3 24.5t-14.5 19.5l-139 80q-11 6 -24 3t-19.5 -15t-3 -24.5t14.5 -19.5z" />
    <glyph glyph-name="loadc1" unicode="&#xe616;" 
d="M960 360q-5 28 -11 51q-9 34 -22 64q-26 64 -71 117q-49 58 -114 96q-63 37 -136 52q-39 8 -75 8q-30 0 -59 -2q-77 -8 -148 -41q-60 -29 -110 -73t-84 -100q-40 -65 -55 -135q-13 -60 -10 -116q2 -61 19 -112q11 -37 26 -67q16 -32 37 -62q42 -58 100 -101
q59 -43 129 -66q74 -23 151 -21q76 3 145 29q68 27 123 73q25 21 50 52q25 30 42 60q14 26 25 57q7 17 10 29t7 32q5 28 3 52q-3 -18 -5 -22q-3 -12 -8 -25q-4 -13 -22 -51q-13 -30 -33 -62q-11 -18 -21 -30q-8 -11 -23 -28q-25 -27 -54 -48q-31 -23 -64 -39
q-68 -33 -145 -40q-79 -6 -153 16q-71 21 -130 65q-57 44 -96 104q-40 60 -56 134q-4 18 -6 38q-2 19 -3 33q-1 34 5 68q11 76 48 140q33 58 84 103t114 70q35 14 74 22q23 4 39 5q4 0 10 0.5t9 0.5h4.5h3.5q68 1 129 -18q67 -21 123 -66q57 -46 94 -111q30 -55 43 -117
q2 -9 6 -28q2 -14 13 -21q12 -8 25.5 -4t19.5 17q4 9 3 18z" />
    <glyph glyph-name="load3" unicode="&#xe61a;" horiz-adv-x="1099" 
d="M282 757q93 47 196 53.5t195 -24t170.5 -97t125.5 -159.5q49 -96 54.5 -202.5t-29.5 -200.5l72 -95l32 -41h-17h-32h-129q-72 -95 -178 -148q-93 -47 -196 -53.5t-195 24t-170.5 97t-125.5 159.5t-53.5 196t24 195t97 170.5t159.5 125.5zM687 497q-27 0 -46.5 -19.5
t-19.5 -46.5v-66l-221 -95v198q0 27 -19.5 46.5t-46.5 19.5t-47 -19.5t-20 -46.5v-467q0 -27 20 -46.5t47 -19.5t46.5 19.5t19.5 46.5v125l221 95v-175q0 -28 19.5 -47.5t46.5 -19.5t47 19.5t20 47.5v385q0 27 -20 46.5t-47 19.5zM687 680q-28 0 -47 -20t-19 -48
q0 -30 18.5 -48t47.5 -18t47.5 18.5t19.5 47.5q0 27 -20 47.5t-47 20.5v0z" />
    <glyph glyph-name="loadb1" unicode="&#xe7fb;" 
d="M576 492q0 -27 -18.5 -45.5t-45.5 -18.5v0q-27 0 -45.5 18.5t-18.5 45.5v192q0 27 18.5 45.5t45.5 18.5v0q27 0 45.5 -18.5t18.5 -45.5v-192zM512 172q-27 0 -45.5 -18.5t-18.5 -45.5v-192q0 -27 18.5 -45.5t45.5 -18.5t45.5 18.5t18.5 45.5v192q0 27 -18.5 45.5
t-45.5 18.5v0zM896 364h-192q-27 0 -45.5 -18.5t-18.5 -45.5t18.5 -45.5t45.5 -18.5h192q27 0 45.5 18.5t18.5 45.5t-18.5 45.5t-45.5 18.5v0zM320 364h-192q-27 0 -45.5 -18.5t-18.5 -45.5t18.5 -45.5t45.5 -18.5h192q27 0 45.5 18.5t18.5 45.5t-18.5 45.5t-45.5 18.5v0z
M693 391q-19 -19 -45.5 -19t-45.5 19v0q-18 18 -18 44.5t18 45.5l136 136q19 19 45.5 19t45.5 -19v0q19 -19 19 -45.5t-19 -45.5zM421 209q-18 19 -44.5 19t-45.5 -19l-136 -135q-19 -19 -19 -45.5t19 -45.5t45.5 -19t45.5 19l135 136q19 19 19 45.5t-19 44.5v0zM829 74
l-136 136q-19 18 -45.5 18t-45 -18.5t-18.5 -45t18 -45.5l136 -136q19 -19 45.5 -19t45.5 19t19 45.5t-19 45.5v0zM421 481l-135 136q-19 19 -45.5 19t-45.5 -19t-19 -45.5t19 -45.5l136 -136q19 -18 45.5 -18t45 18.5t18.5 45t-19 45.5v0z" />
    <glyph glyph-name="loadc2" unicode="&#xe7fc;" 
d="M960 360q-5 28 -11 51q-9 34 -22 64q-26 64 -71 117q-49 58 -114 96q-63 37 -136 52q-39 8 -75 8q-30 0 -59 -2q-77 -8 -148 -41q-60 -29 -110 -73t-84 -100q-40 -65 -55 -135q-13 -60 -10 -116q2 -61 19 -112q11 -37 26 -67q16 -32 37 -62q42 -58 100 -101
q59 -43 129 -66q74 -23 151 -21q76 3 145 29q68 27 123 73q25 21 50 52q25 30 42 60q14 26 25 57q7 17 10 29t7 32q5 28 3 52q-3 -18 -5 -22q-3 -12 -8 -25q-4 -13 -22 -51q-13 -30 -33 -62q-11 -18 -21 -30q-8 -11 -23 -28q-25 -27 -54 -48q-31 -23 -64 -39
q-68 -33 -145 -40q-79 -6 -153 16q-71 21 -130 65q-57 44 -96 104q-40 60 -56 134q-4 18 -6 38q-2 19 -3 33q-1 34 5 68q11 76 48 140q33 58 84 103t114 70q35 14 74 22q23 4 39 5q4 0 10 0.5t9 0.5h4.5h3.5q68 1 129 -18q67 -21 123 -66q57 -46 94 -111q30 -55 43 -117
q2 -9 6 -28q2 -14 13 -21q12 -8 25.5 -4t19.5 17q4 9 3 18z" />
    <glyph glyph-name="loadd1" unicode="&#xe7fd;" 
d="M864 332h-160q-13 0 -22.5 -9.5t-9.5 -22.5t9.5 -22.5t22.5 -9.5h160q13 0 22.5 9.5t9.5 22.5t-9.5 22.5t-22.5 9.5zM352 300q0 13 -9.5 22.5t-22.5 9.5h-160q-13 0 -22.5 -9.5t-9.5 -22.5t9.5 -22.5t22.5 -9.5h160q13 0 22.5 9.5t9.5 22.5zM512 140q-13 0 -22.5 -9.5
t-9.5 -22.5v-160q0 -13 9.5 -22.5t22.5 -9.5t22.5 9.5t9.5 22.5v160q0 13 -9.5 22.5t-22.5 9.5zM512 684q-13 0 -22.5 -9.5t-9.5 -22.5v-160q0 -13 9.5 -22.5t22.5 -9.5t22.5 9.5t9.5 22.5v160q0 13 -9.5 22.5t-22.5 9.5zM650.5 380q6.5 -12 19.5 -15t24 3l139 80
q12 7 15 19.5t-3.5 24.5t-19 15t-24.5 -3l-139 -80q-11 -7 -14.5 -19.5t3 -24.5zM373.5 220q-6.5 12 -19.5 15t-24 -3l-139 -80q-12 -7 -15 -19.5t3.5 -24.5t19 -15t24.5 3l139 80q11 7 14.5 19.5t-3 24.5zM636 150q-7 11 -19.5 14.5t-24.5 -3t-15 -19.5t3 -24l80 -139
q7 -11 19.5 -14.5t24.5 3t15 19.5t-3 24zM364 621q-7 11 -19.5 14.5t-24.5 -3t-15 -19.5t3 -24l80 -139q7 -11 19.5 -14.5t24.5 3t15 19.5t-3 24zM592 438.5q12 -6.5 24.5 -3t19.5 14.5l80 139q6 12 3 24.5t-15 19t-24.5 3.5t-19.5 -15l-80 -139q-6 -11 -3 -24t15 -19.5z
M432 161.5q-12 6.5 -24.5 3t-19.5 -14.5l-80 -139q-6 -12 -3 -24.5t15 -19t24.5 -3.5t19.5 15l80 139q6 11 3 24t-15 19.5zM833 152l-139 80q-11 6 -24 3t-19.5 -15t-3 -24.5t14.5 -19.5l139 -80q11 -6 24 -3t19.5 15t3 24.5t-14.5 19.5zM191 448l139 -80q11 -6 24 -3
t19.5 15t3 24.5t-14.5 19.5l-139 80q-11 6 -24 3t-19.5 -15t-3 -24.5t14.5 -19.5z" />
    <glyph glyph-name="loada2" unicode="&#xe80b;" 
d="M512 620zM384 620q0 53 37.5 90.5t90.5 37.5t90.5 -37.5t37.5 -90.5t-37.5 -90.5t-90.5 -37.5t-90.5 37.5t-37.5 90.5zM192 300zM96 300q0 40 28 68t68 28t68 -28t28 -68t-28 -68t-68 -28t-68 28t-28 68zM736 524zM720 524q0 7 4.5 11.5t11.5 4.5t11.5 -4.5t4.5 -11.5
t-4.5 -11.5t-11.5 -4.5t-11.5 4.5t-4.5 11.5zM360 597q-30 30 -72 30t-72 -30t-30 -73t30 -73t72 -30t72 30t30 73t-30 73zM832 300zM800 300q0 13 9.5 22.5t22.5 9.5t22.5 -9.5t9.5 -22.5t-9.5 -22.5t-22.5 -9.5t-22.5 9.5t-9.5 22.5zM738 74zM690 74q0 20 14 34t34 14
t34 -14t14 -34t-14 -34t-34 -14t-34 14t-14 34zM512 -20zM448 -20q0 26 19 45t45 19t45 -19t19 -45t-19 -45t-45 -19t-45 19t-19 45zM288 76zM208 76q0 33 23.5 56.5t56.5 23.5t56.5 -23.5t23.5 -56.5t-23.5 -56.5t-56.5 -23.5t-56.5 23.5t-23.5 56.5z" />
    <glyph glyph-name="siglyphcircleloadleft" unicode="&#xe6dc;" horiz-adv-x="1088" 
d="M1021 276q-2 97 -40 185t-100.5 150.5t-148.5 99t-179 35t-174 -35t-139 -91.5t-91 -140.5t-33 -178.5h-103q-10 -11 -10 -35.5t10 -35.5l122 -112q11 -11 25.5 -11t25.5 11l123 112q10 11 10 35.5t-10 35.5h-104q-1 158 96.5 256.5t253.5 101.5q102 2 189 -48.5
t139 -140t54 -195.5q2 -104 -45 -194.5t-130.5 -144.5t-183.5 -59v-87q92 3 175 43.5t142 105.5t93 153.5t33 184.5v0z" />
    <glyph glyph-name="siglyphcircleloadright" unicode="&#xe6dd;" 
d="M2 368q2 91 38 173.5t95 142t139.5 93.5t167.5 32q117 -2 211 -55.5t147.5 -149.5t53.5 -216h93q10 -10 10 -24.5t-10 -23.5l-111 -122q-10 -10 -24 -10t-24 10l-104 122q-9 9 -9 23.5t9 24.5h86q1 149 -91 243t-238 97q-96 1 -178 -46.5t-131 -131.5t-51 -184
q-2 -98 42.5 -183t123 -136t172.5 -55v-82q-116 4 -212.5 66.5t-151.5 166.5t-53 225v0z" />
    <glyph glyph-name="siglyphload" unicode="&#xe7ef;" horiz-adv-x="1088" 
d="M638 693q0 -63 -19.5 -161.5t-43 -98.5t-43 99t-19.5 161q0 48 18.5 82.5t44 34.5t44 -34.5t18.5 -82.5v0zM513 -90q0 62 19.5 160t43 98t43 -98t19.5 -160q0 -48 -18.5 -82t-44 -34t-44 34t-18.5 82v0zM183 362q63 0 163 -19.5t100 -42t-100 -42t-163 -19.5
q-49 0 -84 18t-35 43.5t35 43.5t84 18v0zM968 237q-63 0 -162.5 20t-99.5 43t99.5 43t162.5 20q49 0 83.5 -18.5t34.5 -44.5t-34.5 -44.5t-83.5 -18.5v0zM908 544q-44 -44 -128 -100t-100.5 -40t39.5 100t100 128q35 34 72 45.5t55.5 -7t7 -55.5t-45.5 -71v0zM244 54
q44 44 127 99.5t99.5 39t-39 -100t-99.5 -126.5q-34 -34 -71 -45.5t-55 7t-7 55.5t45 71v0zM331 632q45 -45 102 -129.5t41 -100.5t-100.5 41t-129.5 102q-35 35 -46.5 72t6.5 55t55 6t72 -46v0zM820 -33q-44 45 -100.5 129.5t-40 101t101 -40t128.5 -101.5q35 -34 46 -71.5
t-7 -56t-56 -7t-72 45.5v0z" />
    <glyph glyph-name="loada3" unicode="&#xe812;" 
d="M512 620zM384 620q0 53 37.5 90.5t90.5 37.5t90.5 -37.5t37.5 -90.5t-37.5 -90.5t-90.5 -37.5t-90.5 37.5t-37.5 90.5zM192 300zM96 300q0 40 28 68t68 28t68 -28t28 -68t-28 -68t-68 -28t-68 28t-28 68zM736 524zM720 524q0 7 4.5 11.5t11.5 4.5t11.5 -4.5t4.5 -11.5
t-4.5 -11.5t-11.5 -4.5t-11.5 4.5t-4.5 11.5zM360 597q-30 30 -72 30t-72 -30t-30 -73t30 -73t72 -30t72 30t30 73t-30 73zM832 300zM800 300q0 13 9.5 22.5t22.5 9.5t22.5 -9.5t9.5 -22.5t-9.5 -22.5t-22.5 -9.5t-22.5 9.5t-9.5 22.5zM738 74zM690 74q0 20 14 34t34 14
t34 -14t14 -34t-14 -34t-34 -14t-34 14t-14 34zM512 -20zM448 -20q0 26 19 45t45 19t45 -19t19 -45t-19 -45t-45 -19t-45 19t-19 45zM288 76zM208 76q0 33 23.5 56.5t56.5 23.5t56.5 -23.5t23.5 -56.5t-23.5 -56.5t-56.5 -23.5t-56.5 23.5t-23.5 56.5z" />
    <glyph glyph-name="loadb2" unicode="&#xe826;" 
d="M576 492q0 -27 -18.5 -45.5t-45.5 -18.5v0q-27 0 -45.5 18.5t-18.5 45.5v192q0 27 18.5 45.5t45.5 18.5v0q27 0 45.5 -18.5t18.5 -45.5v-192zM512 172q-27 0 -45.5 -18.5t-18.5 -45.5v-192q0 -27 18.5 -45.5t45.5 -18.5t45.5 18.5t18.5 45.5v192q0 27 -18.5 45.5
t-45.5 18.5v0zM896 364h-192q-27 0 -45.5 -18.5t-18.5 -45.5t18.5 -45.5t45.5 -18.5h192q27 0 45.5 18.5t18.5 45.5t-18.5 45.5t-45.5 18.5v0zM320 364h-192q-27 0 -45.5 -18.5t-18.5 -45.5t18.5 -45.5t45.5 -18.5h192q27 0 45.5 18.5t18.5 45.5t-18.5 45.5t-45.5 18.5v0z
M693 391q-19 -19 -45.5 -19t-45.5 19v0q-18 18 -18 44.5t18 45.5l136 136q19 19 45.5 19t45.5 -19v0q19 -19 19 -45.5t-19 -45.5zM421 209q-18 19 -44.5 19t-45.5 -19l-136 -135q-19 -19 -19 -45.5t19 -45.5t45.5 -19t45.5 19l135 136q19 19 19 45.5t-19 44.5v0zM829 74
l-136 136q-19 18 -45.5 18t-45 -18.5t-18.5 -45t18 -45.5l136 -136q19 -19 45.5 -19t45.5 19t19 45.5t-19 45.5v0zM421 481l-135 136q-19 19 -45.5 19t-45.5 -19t-19 -45.5t19 -45.5l136 -136q19 -18 45.5 -18t45 18.5t18.5 45t-19 45.5v0z" />
    <glyph glyph-name="loadc3" unicode="&#xe827;" 
d="M960 360q-5 28 -11 51q-9 34 -22 64q-26 64 -71 117q-49 58 -114 96q-63 37 -136 52q-39 8 -75 8q-30 0 -59 -2q-77 -8 -148 -41q-60 -29 -110 -73t-84 -100q-40 -65 -55 -135q-13 -60 -10 -116q2 -61 19 -112q11 -37 26 -67q16 -32 37 -62q42 -58 100 -101
q59 -43 129 -66q74 -23 151 -21q76 3 145 29q68 27 123 73q25 21 50 52q25 30 42 60q14 26 25 57q7 17 10 29t7 32q5 28 3 52q-3 -18 -5 -22q-3 -12 -8 -25q-4 -13 -22 -51q-13 -30 -33 -62q-11 -18 -21 -30q-8 -11 -23 -28q-25 -27 -54 -48q-31 -23 -64 -39
q-68 -33 -145 -40q-79 -6 -153 16q-71 21 -130 65q-57 44 -96 104q-40 60 -56 134q-4 18 -6 38q-2 19 -3 33q-1 34 5 68q11 76 48 140q33 58 84 103t114 70q35 14 74 22q23 4 39 5q4 0 10 0.5t9 0.5h4.5h3.5q68 1 129 -18q67 -21 123 -66q57 -46 94 -111q30 -55 43 -117
q2 -9 6 -28q2 -14 13 -21q12 -8 25.5 -4t19.5 17q4 9 3 18z" />
    <glyph glyph-name="loadd2" unicode="&#xe828;" 
d="M864 332h-160q-13 0 -22.5 -9.5t-9.5 -22.5t9.5 -22.5t22.5 -9.5h160q13 0 22.5 9.5t9.5 22.5t-9.5 22.5t-22.5 9.5zM352 300q0 13 -9.5 22.5t-22.5 9.5h-160q-13 0 -22.5 -9.5t-9.5 -22.5t9.5 -22.5t22.5 -9.5h160q13 0 22.5 9.5t9.5 22.5zM512 140q-13 0 -22.5 -9.5
t-9.5 -22.5v-160q0 -13 9.5 -22.5t22.5 -9.5t22.5 9.5t9.5 22.5v160q0 13 -9.5 22.5t-22.5 9.5zM512 684q-13 0 -22.5 -9.5t-9.5 -22.5v-160q0 -13 9.5 -22.5t22.5 -9.5t22.5 9.5t9.5 22.5v160q0 13 -9.5 22.5t-22.5 9.5zM650.5 380q6.5 -12 19.5 -15t24 3l139 80
q12 7 15 19.5t-3.5 24.5t-19 15t-24.5 -3l-139 -80q-11 -7 -14.5 -19.5t3 -24.5zM373.5 220q-6.5 12 -19.5 15t-24 -3l-139 -80q-12 -7 -15 -19.5t3.5 -24.5t19 -15t24.5 3l139 80q11 7 14.5 19.5t-3 24.5zM636 150q-7 11 -19.5 14.5t-24.5 -3t-15 -19.5t3 -24l80 -139
q7 -11 19.5 -14.5t24.5 3t15 19.5t-3 24zM364 621q-7 11 -19.5 14.5t-24.5 -3t-15 -19.5t3 -24l80 -139q7 -11 19.5 -14.5t24.5 3t15 19.5t-3 24zM592 438.5q12 -6.5 24.5 -3t19.5 14.5l80 139q6 12 3 24.5t-15 19t-24.5 3.5t-19.5 -15l-80 -139q-6 -11 -3 -24t15 -19.5z
M432 161.5q-12 6.5 -24.5 3t-19.5 -14.5l-80 -139q-6 -12 -3 -24.5t15 -19t24.5 -3.5t19.5 15l80 139q6 11 3 24t-15 19.5zM833 152l-139 80q-11 6 -24 3t-19.5 -15t-3 -24.5t14.5 -19.5l139 -80q11 -6 24 -3t19.5 15t3 24.5t-14.5 19.5zM191 448l139 -80q11 -6 24 -3
t19.5 15t3 24.5t-14.5 19.5l-139 80q-11 6 -24 3t-19.5 -15t-3 -24.5t14.5 -19.5z" />
    <glyph glyph-name="weibiaoti5zhuanhuan" unicode="&#xe60e;" 
d="M373 653q0 -55 39.5 -94t95 -39t95 39t39.5 94t-39.5 94t-95 39t-95 -39t-39.5 -94zM658 536q0 -55 39.5 -94t95 -39t95 39t39.5 94t-39.5 94.5t-95 39.5t-95 -39.5t-39.5 -94.5zM843 254q0 -28 20 -47.5t47.5 -19.5t47.5 19.5t20 47.5t-20 47t-47.5 19t-47.5 -19
t-20 -47zM725 -28.5q0 -27.5 20 -47t47.5 -19.5t47.5 19.5t20 47t-20 47t-47.5 19.5t-47.5 -19.5t-20 -47zM440 -145.5q0 -27.5 20 -47t47.5 -19.5t47.5 19.5t20 47t-20 47t-47.5 19.5t-47.5 -19.5t-20 -47zM156 -28.5q0 -27.5 19.5 -47t47 -19.5t47.5 19.5t20 47t-20 47
t-47.5 19.5t-47 -19.5t-19.5 -47zM122 536.5q0 -41.5 29.5 -70.5t71 -29t71 29t29.5 70.5t-29.5 70.5t-71 29t-71 -29t-29.5 -70.5zM29 254q0 -31 22 -53t53.5 -22t53.5 22t22 53t-22 53t-53.5 22t-53.5 -22t-22 -53z" />
    <glyph glyph-name="load4" unicode="&#xe64c;" 
d="M515 171q8 0 14 -6t6 -14.5t-6 -14.5t-14 -6q-107 0 -182.5 75.5t-75.5 182.5t75.5 182.5t182.5 75.5t182.5 -75.5t75.5 -182.5q0 -8 -6 -14t-14.5 -6t-14.5 6t-6 14q0 90 -63.5 154t-153.5 64t-154 -64t-64 -154t64 -153.5t154 -63.5zM748 290l-73 94h145l-72 -94v0z
" />
    <glyph glyph-name="load5" unicode="&#xe624;" 
d="M955 321h-126q-27 0 -45.5 18.5t-18.5 44.5t18.5 44.5t45.5 18.5h126q26 0 45 -18.5t19 -44.5t-19 -44.5t-45 -18.5v0zM781 563q-19 -18 -45 -18t-44.5 18.5t-18.5 44.5t18 45l90 89q18 19 44.5 19t45 -18.5t18.5 -45t-19 -44.5zM512 -123q-26 0 -44.5 19t-18.5 45v126
q0 27 18.5 45.5t44.5 18.5t44.5 -18.5t18.5 -45.5v-126q0 -26 -18.5 -45t-44.5 -19v0zM512 637q-26 0 -44.5 18.5t-18.5 45.5v126q0 26 18.5 45t44.5 19t44.5 -19t18.5 -45v-126q0 -27 -18.5 -45.5t-44.5 -18.5v0zM243 26q-18 -19 -44.5 -19t-45 18.5t-18.5 45t19 44.5
l89 90q19 18 45 18t44.5 -18.5t18.5 -44.5t-18 -45zM243 563l-89 90q-19 18 -19 44.5t18.5 45t45 18.5t44.5 -19l90 -89q18 -19 18 -45t-18.5 -44.5t-44.5 -18.5t-45 18v0zM259 384q0 -26 -18.5 -44.5t-45.5 -18.5h-126q-26 0 -45 18.5t-19 44.5t19 44.5t45 18.5h126
q27 0 45.5 -18.5t18.5 -44.5v0zM781 205l89 -90q19 -18 19 -44.5t-18.5 -45t-45 -18.5t-44.5 19l-90 89q-18 19 -18 45t18.5 44.5t44.5 18.5t45 -18v0zM781 205z" />
    <glyph glyph-name="loada4" unicode="&#xe892;" 
d="M512 704zM384 704q0 53 37.5 90.5t90.5 37.5t90.5 -37.5t37.5 -90.5t-37.5 -90.5t-90.5 -37.5t-90.5 37.5t-37.5 90.5zM192 384zM96 384q0 40 28 68t68 28t68 -28t28 -68t-28 -68t-68 -28t-68 28t-28 68zM736 608zM720 608q0 7 4.5 11.5t11.5 4.5t11.5 -4.5t4.5 -11.5
t-4.5 -11.5t-11.5 -4.5t-11.5 4.5t-4.5 11.5zM360 681q-30 30 -72 30t-72 -30t-30 -73t30 -73t72 -30t72 30t30 73t-30 73zM832 384zM800 384q0 13 9.5 22.5t22.5 9.5t22.5 -9.5t9.5 -22.5t-9.5 -22.5t-22.5 -9.5t-22.5 9.5t-9.5 22.5zM738 158zM690 158q0 20 14 34t34 14
t34 -14t14 -34t-14 -34t-34 -14t-34 14t-14 34zM512 64zM448 64q0 26 19 45t45 19t45 -19t19 -45t-19 -45t-45 -19t-45 19t-19 45zM288 160zM208 160q0 33 23.5 56.5t56.5 23.5t56.5 -23.5t23.5 -56.5t-23.5 -56.5t-56.5 -23.5t-56.5 23.5t-23.5 56.5z" />
    <glyph glyph-name="loadb3" unicode="&#xe893;" 
d="M576 576q0 -27 -18.5 -45.5t-45.5 -18.5v0q-27 0 -45.5 18.5t-18.5 45.5v192q0 27 18.5 45.5t45.5 18.5v0q27 0 45.5 -18.5t18.5 -45.5v-192zM512 256q-27 0 -45.5 -18.5t-18.5 -45.5v-192q0 -27 18.5 -45.5t45.5 -18.5t45.5 18.5t18.5 45.5v192q0 27 -18.5 45.5
t-45.5 18.5v0zM896 448h-192q-27 0 -45.5 -18.5t-18.5 -45.5t18.5 -45.5t45.5 -18.5h192q27 0 45.5 18.5t18.5 45.5t-18.5 45.5t-45.5 18.5v0zM320 448h-192q-27 0 -45.5 -18.5t-18.5 -45.5t18.5 -45.5t45.5 -18.5h192q27 0 45.5 18.5t18.5 45.5t-18.5 45.5t-45.5 18.5v0z
M693 475q-19 -19 -45.5 -19t-45.5 19v0q-18 18 -18 44.5t18 45.5l136 136q19 19 45.5 19t45.5 -19v0q19 -19 19 -45.5t-19 -45.5zM421 293q-18 19 -44.5 19t-45.5 -19l-136 -135q-19 -19 -19 -45.5t19 -45.5t45.5 -19t45.5 19l135 136q19 19 19 45.5t-19 44.5v0zM829 158
l-136 136q-19 18 -45.5 18t-45 -18.5t-18.5 -45t18 -45.5l136 -136q19 -19 45.5 -19t45.5 19t19 45.5t-19 45.5v0zM421 565l-135 136q-19 19 -45.5 19t-45.5 -19t-19 -45.5t19 -45.5l136 -136q19 -18 45.5 -18t45 18.5t18.5 45t-19 45.5v0z" />
    <glyph glyph-name="loadc4" unicode="&#xe894;" 
d="M960 444q-5 28 -11 51q-9 34 -22 64q-26 64 -71 117q-49 58 -114 96q-63 37 -136 52q-39 8 -75 8q-30 0 -59 -2q-77 -8 -148 -41q-60 -29 -110 -73t-84 -100q-40 -65 -55 -135q-13 -60 -10 -116q2 -61 19 -112q11 -37 26 -67q16 -32 37 -62q42 -58 100 -101
q59 -43 129 -66q74 -23 151 -21q76 3 145 29q68 27 123 73q25 21 50 52q25 30 42 60q14 26 25 57q7 17 10 29t7 32q5 28 3 52q-3 -18 -5 -22q-3 -12 -8 -25q-4 -13 -22 -51q-13 -30 -33 -62q-11 -18 -21 -30q-8 -11 -23 -28q-25 -27 -54 -48q-31 -23 -64 -39
q-68 -33 -145 -40q-79 -6 -153 16q-71 21 -130 65q-57 44 -96 104q-40 60 -56 134q-4 18 -6 38q-2 19 -3 33q-1 34 5 68q11 76 48 140q33 58 84 103t114 70q35 14 74 22q23 4 39 5q4 0 10 0.5t9 0.5h4.5h3.5q68 1 129 -18q67 -21 123 -66q57 -46 94 -111q30 -55 43 -117
q2 -9 6 -28q2 -14 13 -21q12 -8 25.5 -4t19.5 17q4 9 3 18z" />
    <glyph glyph-name="loadd3" unicode="&#xe895;" 
d="M864 416h-160q-13 0 -22.5 -9.5t-9.5 -22.5t9.5 -22.5t22.5 -9.5h160q13 0 22.5 9.5t9.5 22.5t-9.5 22.5t-22.5 9.5zM352 384q0 13 -9.5 22.5t-22.5 9.5h-160q-13 0 -22.5 -9.5t-9.5 -22.5t9.5 -22.5t22.5 -9.5h160q13 0 22.5 9.5t9.5 22.5zM512 224q-13 0 -22.5 -9.5
t-9.5 -22.5v-160q0 -13 9.5 -22.5t22.5 -9.5t22.5 9.5t9.5 22.5v160q0 13 -9.5 22.5t-22.5 9.5zM512 768q-13 0 -22.5 -9.5t-9.5 -22.5v-160q0 -13 9.5 -22.5t22.5 -9.5t22.5 9.5t9.5 22.5v160q0 13 -9.5 22.5t-22.5 9.5zM650.5 464q6.5 -12 19.5 -15t24 3l139 80
q12 7 15 19.5t-3.5 24.5t-19 15t-24.5 -3l-139 -80q-11 -7 -14.5 -19.5t3 -24.5zM373.5 304q-6.5 12 -19.5 15t-24 -3l-139 -80q-12 -7 -15 -19.5t3.5 -24.5t19 -15t24.5 3l139 80q11 7 14.5 19.5t-3 24.5zM636 234q-7 11 -19.5 14.5t-24.5 -3t-15 -19.5t3 -24l80 -139
q7 -11 19.5 -14.5t24.5 3t15 19.5t-3 24zM364 705q-7 11 -19.5 14.5t-24.5 -3t-15 -19.5t3 -24l80 -139q7 -11 19.5 -14.5t24.5 3t15 19.5t-3 24zM592 522.5q12 -6.5 24.5 -3t19.5 14.5l80 139q6 12 3 24.5t-15 19t-24.5 3.5t-19.5 -15l-80 -139q-6 -11 -3 -24t15 -19.5z
M432 245.5q-12 6.5 -24.5 3t-19.5 -14.5l-80 -139q-6 -12 -3 -24.5t15 -19t24.5 -3.5t19.5 15l80 139q6 11 3 24t-15 19.5zM833 236l-139 80q-11 6 -24 3t-19.5 -15t-3 -24.5t14.5 -19.5l139 -80q11 -6 24 -3t19.5 15t3 24.5t-14.5 19.5zM191 532l139 -80q11 -6 24 -3
t19.5 15t3 24.5t-14.5 19.5l-139 80q-11 6 -24 3t-19.5 -15t-3 -24.5t14.5 -19.5z" />
    <glyph glyph-name="load6" unicode="&#xe815;" 
d="M301 99.5q0 -30.5 -21.5 -52t-52.5 -21.5q-29 0 -51 22t-22 51q0 31 21.5 52.5t52 21.5t52 -21.5t21.5 -52zM585 -18.5q0 -30.5 -21.5 -51.5t-51.5 -21t-51.5 21t-21.5 51.5t21.5 52t51.5 21.5t51.5 -21.5t21.5 -52zM183 384q0 -30 -21.5 -51.5t-52 -21.5t-51.5 21.5
t-21 51.5t21 51.5t51.5 21.5t52 -21.5t21.5 -51.5zM870 99q0 -29 -22 -51t-51 -22q-31 0 -52.5 21.5t-21.5 52t21.5 52t52 21.5t52 -21.5t21.5 -52.5zM319 668.5q0 -37.5 -27 -64.5t-64.5 -27t-64.5 27t-27 64.5t27 64.5t64.5 27t64.5 -27t27 -64.5zM987 384
q0 -30 -21 -51.5t-51.5 -21.5t-52 21.5t-21.5 51.5t21.5 51.5t52 21.5t51.5 -21.5t21 -51.5zM622 786.5q0 -45.5 -32 -77.5t-78 -32t-78 32t-32 77.5t32 77.5t78 32t78 -32t32 -77.5zM925 669q0 -54 -38 -91t-90 -37q-54 0 -91 37t-37 91q0 52 37 90t91 38q52 0 90 -38
t38 -90z" />
    <glyph glyph-name="load31" unicode="&#xe61b;" horiz-adv-x="4608" 
d="M4096 -128q-139 0 -257 68.5t-186.5 186.5t-68.5 257t68.5 257t186.5 186.5t257 68.5t257 -68.5t186.5 -186.5t68.5 -257t-68.5 -257t-186.5 -186.5t-257 -68.5zM2304 -128q-139 0 -257 68.5t-186.5 186.5t-68.5 257t68.5 257t186.5 186.5t257 68.5t257 -68.5
t186.5 -186.5t68.5 -257t-68.5 -257t-186.5 -186.5t-257 -68.5zM512 -128q-139 0 -257 68.5t-186.5 186.5t-68.5 257t68.5 257t186.5 186.5t257 68.5t257 -68.5t186.5 -186.5t68.5 -257t-68.5 -257t-186.5 -186.5t-257 -68.5z" />
    <glyph glyph-name="load7" unicode="&#xe640;" 
d="M512 896q-139 0 -257 -68.5t-186.5 -186.5t-68.5 -257t68.5 -257t186.5 -186.5t257 -68.5t257 68.5t186.5 186.5t68.5 257t-68.5 257t-186.5 186.5t-257 68.5zM668 494l64 40q16 8 25 -7q8 -16 -7 -26l-64 -39q-11 -6 -25 7q-7 16 7 25zM590 558l39 64q10 15 26 7
q13 -6 7 -25l-40 -64q-4 -14 -25 -7q-13 7 -7 25zM267 526q6 14 25 7l64 -39q13 -7 7 -25q-7 -13 -25 -7l-64 39q-14 7 -7 25zM227 384q0 18 18 18h75q18 0 18 -18t-18 -18h-75q-18 0 -18 18zM356 274l-64 -40q-21 -7 -25 7q-8 16 7 26l64 39q15 8 25 -7q7 -16 -7 -25z
M434 210l-39 -64q-6 -9 -13 -11t-13 4q-13 6 -7 25l40 64q7 13 25 7q13 -7 7 -25zM427 533q-15 -8 -25 7l-40 64q-8 16 7 25q16 8 26 -7l39 -64q6 -18 -7 -25zM530 117q0 -18 -18 -18t-18 18v75q0 18 18 18t18 -18v-75zM530 576q0 -18 -18 -18t-18 18v75q0 18 18 18t18 -18
v-75zM654 139q-11 -11 -25 3l-39 64q-8 15 7 25q8 5 15 3.5t10 -6.5l39 -68q3 -5 1 -12t-8 -9zM757 242q-6 -14 -25 -7l-64 39q-5 2 -7 9t0 12q6 8 13 10t12 -3l64 -35q9 -6 11 -13t-4 -12zM779 366h-75q-18 0 -18 18t18 18h75q18 0 18 -18t-18 -18z" />
    <glyph glyph-name="loadd4" unicode="&#xe60f;" 
d="M864 416h-160q-13 0 -22.5 -9.5t-9.5 -22.5t9.5 -22.5t22.5 -9.5h160q13 0 22.5 9.5t9.5 22.5t-9.5 22.5t-22.5 9.5zM352 384q0 13 -9.5 22.5t-22.5 9.5h-160q-13 0 -22.5 -9.5t-9.5 -22.5t9.5 -22.5t22.5 -9.5h160q13 0 22.5 9.5t9.5 22.5zM512 224q-13 0 -22.5 -9.5
t-9.5 -22.5v-160q0 -13 9.5 -22.5t22.5 -9.5t22.5 9.5t9.5 22.5v160q0 13 -9.5 22.5t-22.5 9.5zM512 768q-13 0 -22.5 -9.5t-9.5 -22.5v-160q0 -13 9.5 -22.5t22.5 -9.5t22.5 9.5t9.5 22.5v160q0 13 -9.5 22.5t-22.5 9.5zM650.5 464q6.5 -12 19.5 -15t24 3l139 80
q12 7 15 19.5t-3.5 24.5t-19 15t-24.5 -3l-139 -80q-11 -7 -14.5 -19.5t3 -24.5zM373.5 304q-6.5 12 -19.5 15t-24 -3l-139 -80q-12 -7 -15 -19.5t3.5 -24.5t19 -15t24.5 3l139 80q11 7 14.5 19.5t-3 24.5zM636 234q-7 11 -19.5 14.5t-24.5 -3t-15 -19.5t3 -24l80 -139
q7 -11 19.5 -14.5t24.5 3t15 19.5t-3 24zM364 705q-7 11 -19.5 14.5t-24.5 -3t-15 -19.5t3 -24l80 -139q7 -11 19.5 -14.5t24.5 3t15 19.5t-3 24zM592 522.5q12 -6.5 24.5 -3t19.5 14.5l80 139q6 12 3 24.5t-15 19t-24.5 3.5t-19.5 -15l-80 -139q-6 -11 -3 -24t15 -19.5z
M432 245.5q-12 6.5 -24.5 3t-19.5 -14.5l-80 -139q-6 -12 -3 -24.5t15 -19t24.5 -3.5t19.5 15l80 139q6 11 3 24t-15 19.5zM833 236l-139 80q-11 6 -24 3t-19.5 -15t-3 -24.5t14.5 -19.5l139 -80q11 -6 24 -3t19.5 15t3 24.5t-14.5 19.5zM191 532l139 -80q11 -6 24 -3
t19.5 15t3 24.5t-14.5 19.5l-139 80q-11 6 -24 3t-19.5 -15t-3 -24.5t14.5 -19.5z" />
    <glyph glyph-name="load8" unicode="&#xe6f0;" 
d="M523 894q-20 0 -34 -14t-14 -35v-79v-82q0 -20 14.5 -33.5t34.5 -13.5t34 14t14 34q1 84 0 161q0 20 -14.5 34t-34.5 14zM327 806q-13 21 -39 21t-39 -22.5t1 -45.5q33 -59 78 -138q10 -16 28 -21t34 4.5t21.5 27t-3.5 33.5q-33 59 -81 141zM98 571q14 -8 133 -77
q12 -7 22 -6q33 0 41 32q9 30 -20 47q-49 28 -134 77q-17 10 -34 6t-26 -20t-4 -32.5t22 -26.5zM132 335h79q18 1 29 12t10 28q0 16 -11 26.5t-28 10.5h-155q-18 0 -29.5 -11t-11.5 -28q0 -16 11.5 -26.5t28.5 -11.5h77zM284 235q-7 13 -20.5 16.5t-26.5 -3.5
q-49 -28 -139 -80q-16 -10 -16 -26q0 -22 16 -33.5t34 -1.5q55 31 140 81q13 8 16 21.5t-4 25.5zM376 134q-23 6 -36 -16q-37 -64 -77 -135q-8 -13 -5 -25.5t14 -19.5q12 -7 24.5 -3t20.5 17q15 26 42.5 74t34.5 59q5 10 5 15q0 27 -23 34zM523 89q-12 0 -19.5 -8t-7.5 -22
v-76v0v-78q0 -14 7.5 -22t19.5 -9q13 0 20.5 8.5t7.5 22.5q1 75 0 153q0 15 -7.5 23t-20.5 8zM700 115q-5 10 -14.5 12.5t-18.5 -3.5q-9 -5 -11.5 -14t2.5 -19q30 -52 80 -138q7 -12 21 -12t21 12t0 24q-32 57 -80 138zM940 157q-72 42 -136 78q-8 5 -15 3q-14 -3 -16 -17
q-3 -14 13 -23q17 -10 50 -29.5t39 -22.5q42 -24 46 -26q11 -6 21 0t10 18t-12 19zM989 391h-74v0h-76q-21 0 -21 -17q-1 -18 20 -18h152q21 0 21 17q1 18 -22 18zM801 518q71 41 136 79q8 4 8 13q0 8 -7 11.5t-15 -0.5q-56 -32 -136 -79q-13 -7 -6 -19q8 -12 20 -5z
M679 633q6 1 11 8q2 5 7.5 14t7.5 12q45 80 61 107q9 15 -5 18q-8 2 -14 -9q-9 -15 -32.5 -56t-36.5 -64q-7 -12 -8 -15q-2 -5 0.5 -9.5t8.5 -5.5v0z" />
    <glyph glyph-name="load9" unicode="&#xe61c;" 
d="M861 701q-1 15 -11 23.5t-26 7.5q-29 0 -35 -32q-1 -6 -2 -31v-53q-1 0 -3.5 -1.5t-4.5 -1.5q-26 25 -27 26q-127 116 -298 90q-119 -18 -199.5 -108t-91.5 -214q-9 -116 58 -216.5t179 -138.5q114 -38 228 2t178 141q12 18 15 27q11 32 -15 46q-28 15 -47 -11
q-4 -4 -9.5 -13t-7.5 -12q-80 -116 -219 -123q-93 -5 -170 49.5t-105 144.5q-28 92 7 181.5t119 138.5q80 47 174 34.5t159 -78.5q1 -1 21 -30h-86q-18 -2 -27.5 -11.5t-9.5 -24.5t10 -25.5t27 -11.5q63 -1 181 0q16 0 26.5 8.5t10.5 22.5q3 97 1 194z" />
    <glyph glyph-name="load10" unicode="&#xe721;" 
d="M532 241v349h-41v-349l-125 125l-29 -29l174 -174v0v0l174 174l-29 29zM511 833q-91 0 -173.5 -35.5t-142.5 -95.5t-95.5 -142.5t-35.5 -173.5t35.5 -174t95.5 -143t142.5 -95t173.5 -35t174 35t143 95t95 143t35 174t-35 173.5t-95 142.5t-143 95.5t-174 35.5z
M511.5 -21q-110.5 0 -204.5 54.5t-148 148t-54 204t54 204t148 148t204.5 54.5t204 -54.5t148 -148t54.5 -204t-54.5 -204t-148 -148t-204 -54.5z" />
    <glyph glyph-name="loada5" unicode="&#xe851;" 
d="M512 704zM384 704q0 53 37.5 90.5t90.5 37.5t90.5 -37.5t37.5 -90.5t-37.5 -90.5t-90.5 -37.5t-90.5 37.5t-37.5 90.5zM192 384zM96 384q0 40 28 68t68 28t68 -28t28 -68t-28 -68t-68 -28t-68 28t-28 68zM736 608zM720 608q0 7 4.5 11.5t11.5 4.5t11.5 -4.5t4.5 -11.5
t-4.5 -11.5t-11.5 -4.5t-11.5 4.5t-4.5 11.5zM360 681q-30 30 -72 30t-72 -30t-30 -73t30 -73t72 -30t72 30t30 73t-30 73zM832 384zM800 384q0 13 9.5 22.5t22.5 9.5t22.5 -9.5t9.5 -22.5t-9.5 -22.5t-22.5 -9.5t-22.5 9.5t-9.5 22.5zM738 158zM690 158q0 20 14 34t34 14
t34 -14t14 -34t-14 -34t-34 -14t-34 14t-14 34zM512 64zM448 64q0 26 19 45t45 19t45 -19t19 -45t-19 -45t-45 -19t-45 19t-19 45zM288 160zM208 160q0 33 23.5 56.5t56.5 23.5t56.5 -23.5t23.5 -56.5t-23.5 -56.5t-56.5 -23.5t-56.5 23.5t-23.5 56.5z" />
    <glyph glyph-name="loadb4" unicode="&#xe852;" 
d="M576 576q0 -27 -18.5 -45.5t-45.5 -18.5v0q-27 0 -45.5 18.5t-18.5 45.5v192q0 27 18.5 45.5t45.5 18.5v0q27 0 45.5 -18.5t18.5 -45.5v-192zM512 256q-27 0 -45.5 -18.5t-18.5 -45.5v-192q0 -27 18.5 -45.5t45.5 -18.5t45.5 18.5t18.5 45.5v192q0 27 -18.5 45.5
t-45.5 18.5v0zM896 448h-192q-27 0 -45.5 -18.5t-18.5 -45.5t18.5 -45.5t45.5 -18.5h192q27 0 45.5 18.5t18.5 45.5t-18.5 45.5t-45.5 18.5v0zM320 448h-192q-27 0 -45.5 -18.5t-18.5 -45.5t18.5 -45.5t45.5 -18.5h192q27 0 45.5 18.5t18.5 45.5t-18.5 45.5t-45.5 18.5v0z
M693 475q-19 -19 -45.5 -19t-45.5 19v0q-18 18 -18 44.5t18 45.5l136 136q19 19 45.5 19t45.5 -19v0q19 -19 19 -45.5t-19 -45.5zM421 293q-18 19 -44.5 19t-45.5 -19l-136 -135q-19 -19 -19 -45.5t19 -45.5t45.5 -19t45.5 19l135 136q19 19 19 45.5t-19 44.5v0zM829 158
l-136 136q-19 18 -45.5 18t-45 -18.5t-18.5 -45t18 -45.5l136 -136q19 -19 45.5 -19t45.5 19t19 45.5t-19 45.5v0zM421 565l-135 136q-19 19 -45.5 19t-45.5 -19t-19 -45.5t19 -45.5l136 -136q19 -18 45.5 -18t45 18.5t18.5 45t-19 45.5v0z" />
    <glyph glyph-name="loadc5" unicode="&#xe853;" 
d="M960 444q-5 28 -11 51q-9 34 -22 64q-26 64 -71 117q-49 58 -114 96q-63 37 -136 52q-39 8 -75 8q-30 0 -59 -2q-77 -8 -148 -41q-60 -29 -110 -73t-84 -100q-40 -65 -55 -135q-13 -60 -10 -116q2 -61 19 -112q11 -37 26 -67q16 -32 37 -62q42 -58 100 -101
q59 -43 129 -66q74 -23 151 -21q76 3 145 29q68 27 123 73q25 21 50 52q25 30 42 60q14 26 25 57q7 17 10 29t7 32q5 28 3 52q-3 -18 -5 -22q-3 -12 -8 -25q-4 -13 -22 -51q-13 -30 -33 -62q-11 -18 -21 -30q-8 -11 -23 -28q-25 -27 -54 -48q-31 -23 -64 -39
q-68 -33 -145 -40q-79 -6 -153 16q-71 21 -130 65q-57 44 -96 104q-40 60 -56 134q-4 18 -6 38q-2 19 -3 33q-1 34 5 68q11 76 48 140q33 58 84 103t114 70q35 14 74 22q23 4 39 5q4 0 10 0.5t9 0.5h4.5h3.5q68 1 129 -18q67 -21 123 -66q57 -46 94 -111q30 -55 43 -117
q2 -9 6 -28q2 -14 13 -21q12 -8 25.5 -4t19.5 17q4 9 3 18z" />
    <glyph glyph-name="loadd5" unicode="&#xe854;" 
d="M864 416h-160q-13 0 -22.5 -9.5t-9.5 -22.5t9.5 -22.5t22.5 -9.5h160q13 0 22.5 9.5t9.5 22.5t-9.5 22.5t-22.5 9.5zM352 384q0 13 -9.5 22.5t-22.5 9.5h-160q-13 0 -22.5 -9.5t-9.5 -22.5t9.5 -22.5t22.5 -9.5h160q13 0 22.5 9.5t9.5 22.5zM512 224q-13 0 -22.5 -9.5
t-9.5 -22.5v-160q0 -13 9.5 -22.5t22.5 -9.5t22.5 9.5t9.5 22.5v160q0 13 -9.5 22.5t-22.5 9.5zM512 768q-13 0 -22.5 -9.5t-9.5 -22.5v-160q0 -13 9.5 -22.5t22.5 -9.5t22.5 9.5t9.5 22.5v160q0 13 -9.5 22.5t-22.5 9.5zM650.5 464q6.5 -12 19.5 -15t24 3l139 80
q12 7 15 19.5t-3.5 24.5t-19 15t-24.5 -3l-139 -80q-11 -7 -14.5 -19.5t3 -24.5zM373.5 304q-6.5 12 -19.5 15t-24 -3l-139 -80q-12 -7 -15 -19.5t3.5 -24.5t19 -15t24.5 3l139 80q11 7 14.5 19.5t-3 24.5zM636 234q-7 11 -19.5 14.5t-24.5 -3t-15 -19.5t3 -24l80 -139
q7 -11 19.5 -14.5t24.5 3t15 19.5t-3 24zM364 705q-7 11 -19.5 14.5t-24.5 -3t-15 -19.5t3 -24l80 -139q7 -11 19.5 -14.5t24.5 3t15 19.5t-3 24zM592 522.5q12 -6.5 24.5 -3t19.5 14.5l80 139q6 12 3 24.5t-15 19t-24.5 3.5t-19.5 -15l-80 -139q-6 -11 -3 -24t15 -19.5z
M432 245.5q-12 6.5 -24.5 3t-19.5 -14.5l-80 -139q-6 -12 -3 -24.5t15 -19t24.5 -3.5t19.5 15l80 139q6 11 3 24t-15 19.5zM833 236l-139 80q-11 6 -24 3t-19.5 -15t-3 -24.5t14.5 -19.5l139 -80q11 -6 24 -3t19.5 15t3 24.5t-14.5 19.5zM191 532l139 -80q11 -6 24 -3
t19.5 15t3 24.5t-14.5 19.5l-139 80q-11 6 -24 3t-19.5 -15t-3 -24.5t14.5 -19.5z" />
    <glyph glyph-name="loada6" unicode="&#xe818;" 
d="M512 704zM384 704q0 53 37.5 90.5t90.5 37.5t90.5 -37.5t37.5 -90.5t-37.5 -90.5t-90.5 -37.5t-90.5 37.5t-37.5 90.5zM192 384zM96 384q0 40 28 68t68 28t68 -28t28 -68t-28 -68t-68 -28t-68 28t-28 68zM736 608zM720 608q0 7 4.5 11.5t11.5 4.5t11.5 -4.5t4.5 -11.5
t-4.5 -11.5t-11.5 -4.5t-11.5 4.5t-4.5 11.5zM360 681q-30 30 -72 30t-72 -30t-30 -73t30 -73t72 -30t72 30t30 73t-30 73zM832 384zM800 384q0 13 9.5 22.5t22.5 9.5t22.5 -9.5t9.5 -22.5t-9.5 -22.5t-22.5 -9.5t-22.5 9.5t-9.5 22.5zM738 158zM690 158q0 20 14 34t34 14
t34 -14t14 -34t-14 -34t-34 -14t-34 14t-14 34zM512 64zM448 64q0 26 19 45t45 19t45 -19t19 -45t-19 -45t-45 -19t-45 19t-19 45zM288 160zM208 160q0 33 23.5 56.5t56.5 23.5t56.5 -23.5t23.5 -56.5t-23.5 -56.5t-56.5 -23.5t-56.5 23.5t-23.5 56.5z" />
    <glyph glyph-name="loadb5" unicode="&#xe819;" 
d="M576 576q0 -27 -18.5 -45.5t-45.5 -18.5v0q-27 0 -45.5 18.5t-18.5 45.5v192q0 27 18.5 45.5t45.5 18.5v0q27 0 45.5 -18.5t18.5 -45.5v-192zM512 256q-27 0 -45.5 -18.5t-18.5 -45.5v-192q0 -27 18.5 -45.5t45.5 -18.5t45.5 18.5t18.5 45.5v192q0 27 -18.5 45.5
t-45.5 18.5v0zM896 448h-192q-27 0 -45.5 -18.5t-18.5 -45.5t18.5 -45.5t45.5 -18.5h192q27 0 45.5 18.5t18.5 45.5t-18.5 45.5t-45.5 18.5v0zM320 448h-192q-27 0 -45.5 -18.5t-18.5 -45.5t18.5 -45.5t45.5 -18.5h192q27 0 45.5 18.5t18.5 45.5t-18.5 45.5t-45.5 18.5v0z
M693 475q-19 -19 -45.5 -19t-45.5 19v0q-18 18 -18 44.5t18 45.5l136 136q19 19 45.5 19t45.5 -19v0q19 -19 19 -45.5t-19 -45.5zM421 293q-18 19 -44.5 19t-45.5 -19l-136 -135q-19 -19 -19 -45.5t19 -45.5t45.5 -19t45.5 19l135 136q19 19 19 45.5t-19 44.5v0zM829 158
l-136 136q-19 18 -45.5 18t-45 -18.5t-18.5 -45t18 -45.5l136 -136q19 -19 45.5 -19t45.5 19t19 45.5t-19 45.5v0zM421 565l-135 136q-19 19 -45.5 19t-45.5 -19t-19 -45.5t19 -45.5l136 -136q19 -18 45.5 -18t45 18.5t18.5 45t-19 45.5v0z" />
    <glyph glyph-name="loadc6" unicode="&#xe81a;" 
d="M960 444q-5 28 -11 51q-9 34 -22 64q-26 64 -71 117q-49 58 -114 96q-63 37 -136 52q-39 8 -75 8q-30 0 -59 -2q-77 -8 -148 -41q-60 -29 -110 -73t-84 -100q-40 -65 -55 -135q-13 -60 -10 -116q2 -61 19 -112q11 -37 26 -67q16 -32 37 -62q42 -58 100 -101
q59 -43 129 -66q74 -23 151 -21q76 3 145 29q68 27 123 73q25 21 50 52q25 30 42 60q14 26 25 57q7 17 10 29t7 32q5 28 3 52q-3 -18 -5 -22q-3 -12 -8 -25q-4 -13 -22 -51q-13 -30 -33 -62q-11 -18 -21 -30q-8 -11 -23 -28q-25 -27 -54 -48q-31 -23 -64 -39
q-68 -33 -145 -40q-79 -6 -153 16q-71 21 -130 65q-57 44 -96 104q-40 60 -56 134q-4 18 -6 38q-2 19 -3 33q-1 34 5 68q11 76 48 140q33 58 84 103t114 70q35 14 74 22q23 4 39 5q4 0 10 0.5t9 0.5h4.5h3.5q68 1 129 -18q67 -21 123 -66q57 -46 94 -111q30 -55 43 -117
q2 -9 6 -28q2 -14 13 -21q12 -8 25.5 -4t19.5 17q4 9 3 18z" />
    <glyph glyph-name="loadd6" unicode="&#xe81b;" 
d="M864 416h-160q-13 0 -22.5 -9.5t-9.5 -22.5t9.5 -22.5t22.5 -9.5h160q13 0 22.5 9.5t9.5 22.5t-9.5 22.5t-22.5 9.5zM352 384q0 13 -9.5 22.5t-22.5 9.5h-160q-13 0 -22.5 -9.5t-9.5 -22.5t9.5 -22.5t22.5 -9.5h160q13 0 22.5 9.5t9.5 22.5zM512 224q-13 0 -22.5 -9.5
t-9.5 -22.5v-160q0 -13 9.5 -22.5t22.5 -9.5t22.5 9.5t9.5 22.5v160q0 13 -9.5 22.5t-22.5 9.5zM512 768q-13 0 -22.5 -9.5t-9.5 -22.5v-160q0 -13 9.5 -22.5t22.5 -9.5t22.5 9.5t9.5 22.5v160q0 13 -9.5 22.5t-22.5 9.5zM650.5 464q6.5 -12 19.5 -15t24 3l139 80
q12 7 15 19.5t-3.5 24.5t-19 15t-24.5 -3l-139 -80q-11 -7 -14.5 -19.5t3 -24.5zM373.5 304q-6.5 12 -19.5 15t-24 -3l-139 -80q-12 -7 -15 -19.5t3.5 -24.5t19 -15t24.5 3l139 80q11 7 14.5 19.5t-3 24.5zM636 234q-7 11 -19.5 14.5t-24.5 -3t-15 -19.5t3 -24l80 -139
q7 -11 19.5 -14.5t24.5 3t15 19.5t-3 24zM364 705q-7 11 -19.5 14.5t-24.5 -3t-15 -19.5t3 -24l80 -139q7 -11 19.5 -14.5t24.5 3t15 19.5t-3 24zM592 522.5q12 -6.5 24.5 -3t19.5 14.5l80 139q6 12 3 24.5t-15 19t-24.5 3.5t-19.5 -15l-80 -139q-6 -11 -3 -24t15 -19.5z
M432 245.5q-12 6.5 -24.5 3t-19.5 -14.5l-80 -139q-6 -12 -3 -24.5t15 -19t24.5 -3.5t19.5 15l80 139q6 11 3 24t-15 19.5zM833 236l-139 80q-11 6 -24 3t-19.5 -15t-3 -24.5t14.5 -19.5l139 -80q11 -6 24 -3t19.5 15t3 24.5t-14.5 19.5zM191 532l139 -80q11 -6 24 -3
t19.5 15t3 24.5t-14.5 19.5l-139 80q-11 6 -24 3t-19.5 -15t-3 -24.5t14.5 -19.5z" />
    <glyph glyph-name="load11" unicode="&#xe651;" 
d="M301 99.5q0 -30.5 -21.5 -52t-52.5 -21.5q-29 0 -51 22t-22 51q0 31 21.5 52.5t52 21.5t52 -21.5t21.5 -52zM585 -18.5q0 -30.5 -21.5 -51.5t-51.5 -21t-51.5 21t-21.5 51.5t21.5 52t51.5 21.5t51.5 -21.5t21.5 -52zM183 384q0 -30 -21.5 -51.5t-52 -21.5t-51.5 21.5
t-21 51.5t21 51.5t51.5 21.5t52 -21.5t21.5 -51.5zM870 99q0 -29 -22 -51t-51 -22q-31 0 -52.5 21.5t-21.5 52t21.5 52t52 21.5t52 -21.5t21.5 -52.5zM319 668.5q0 -37.5 -27 -64.5t-64.5 -27t-64.5 27t-27 64.5t27 64.5t64.5 27t64.5 -27t27 -64.5zM987 384
q0 -30 -21 -51.5t-51.5 -21.5t-52 21.5t-21.5 51.5t21.5 51.5t52 21.5t51.5 -21.5t21 -51.5zM622 786.5q0 -45.5 -32 -77.5t-78 -32t-78 32t-32 77.5t32 77.5t78 32t78 -32t32 -77.5zM925 669q0 -54 -38 -91t-90 -37q-54 0 -91 37t-37 91q0 52 37 90t91 38q52 0 90 -38
t38 -90z" />
    <glyph glyph-name="load12" unicode="&#xe60d;" 
d="M256 383q0 -11 -8 -19t-19 -8h-202q-11 0 -19 8t-8 19v1q0 11 8 19t19 8h202q11 1 19 -7t8 -19v-2zM1024 383q0 -12 -8 -19.5t-19 -7.5h-202q-11 0 -19 8t-8 19v1q0 11 8 19t19 8h201q11 0 19 -8t8 -19l1 -1v0zM540 667q0 -11 -8 -19t-19 -8h-1q-12 0 -20 8t-8 19v202
q0 11 8 19t19 8h1q11 0 19 -8t8 -19v-202h1zM540 -101q0 -11 -8 -19t-19 -8h-1q-11 0 -19 8t-8 19v202q0 11 8 19t19 8h1q12 0 19.5 -8t7.5 -19v-202zM330 565q-9 -9 -20 -9t-18 9l-143 142q-8 8 -8 19.5t8 18.5l2 2q8 8 19.5 8t18.5 -8l142 -143q9 -7 8.5 -19t-9.5 -20v0z
M873 21q-8 -8 -19.5 -8t-18.5 8l-142 143q-9 8 -9 19t9 19l1 1q9 9 20 9t18 -9l143 -142q8 -7 8 -19t-10 -21v0zM732 565q-8 -9 -19 -9t-19 9l-1 1q-9 9 -9 20t9 18l142 143q8 8 19.5 8t18.5 -8l2 -2q8 -8 8 -19.5t-8 -18.5zM189 21q-8 -8 -19.5 -8t-18.5 8l-2 2
q-8 8 -8 19.5t8 18.5l143 142q8 9 19 9t19 -9l1 -1q9 -9 9 -20t-9 -18z" />
    <glyph glyph-name="loadd7" unicode="&#xe600;" 
d="M864 416h-160q-13 0 -22.5 -9.5t-9.5 -22.5t9.5 -22.5t22.5 -9.5h160q13 0 22.5 9.5t9.5 22.5t-9.5 22.5t-22.5 9.5zM352 384q0 13 -9.5 22.5t-22.5 9.5h-160q-13 0 -22.5 -9.5t-9.5 -22.5t9.5 -22.5t22.5 -9.5h160q13 0 22.5 9.5t9.5 22.5zM512 224q-13 0 -22.5 -9.5
t-9.5 -22.5v-160q0 -13 9.5 -22.5t22.5 -9.5t22.5 9.5t9.5 22.5v160q0 13 -9.5 22.5t-22.5 9.5zM512 768q-13 0 -22.5 -9.5t-9.5 -22.5v-160q0 -13 9.5 -22.5t22.5 -9.5t22.5 9.5t9.5 22.5v160q0 13 -9.5 22.5t-22.5 9.5zM650.5 464q6.5 -12 19.5 -15t24 3l139 80
q12 7 15 19.5t-3.5 24.5t-19 15t-24.5 -3l-139 -80q-11 -7 -14.5 -19.5t3 -24.5zM373.5 304q-6.5 12 -19.5 15t-24 -3l-139 -80q-12 -7 -15 -19.5t3.5 -24.5t19 -15t24.5 3l139 80q11 7 14.5 19.5t-3 24.5zM636 234q-7 11 -19.5 14.5t-24.5 -3t-15 -19.5t3 -24l80 -139
q7 -11 19.5 -14.5t24.5 3t15 19.5t-3 24zM364 705q-7 11 -19.5 14.5t-24.5 -3t-15 -19.5t3 -24l80 -139q7 -11 19.5 -14.5t24.5 3t15 19.5t-3 24zM592 522.5q12 -6.5 24.5 -3t19.5 14.5l80 139q6 12 3 24.5t-15 19t-24.5 3.5t-19.5 -15l-80 -139q-6 -11 -3 -24t15 -19.5z
M432 245.5q-12 6.5 -24.5 3t-19.5 -14.5l-80 -139q-6 -12 -3 -24.5t15 -19t24.5 -3.5t19.5 15l80 139q6 11 3 24t-15 19.5zM833 236l-139 80q-11 6 -24 3t-19.5 -15t-3 -24.5t14.5 -19.5l139 -80q11 -6 24 -3t19.5 15t3 24.5t-14.5 19.5zM191 532l139 -80q11 -6 24 -3
t19.5 15t3 24.5t-14.5 19.5l-139 80q-11 6 -24 3t-19.5 -15t-3 -24.5t14.5 -19.5z" />
    <glyph glyph-name="loadb6" unicode="&#xe81c;" 
d="M576 576q0 -27 -18.5 -45.5t-45.5 -18.5v0q-27 0 -45.5 18.5t-18.5 45.5v192q0 27 18.5 45.5t45.5 18.5v0q27 0 45.5 -18.5t18.5 -45.5v-192zM512 256q-27 0 -45.5 -18.5t-18.5 -45.5v-192q0 -27 18.5 -45.5t45.5 -18.5t45.5 18.5t18.5 45.5v192q0 27 -18.5 45.5
t-45.5 18.5v0zM896 448h-192q-27 0 -45.5 -18.5t-18.5 -45.5t18.5 -45.5t45.5 -18.5h192q27 0 45.5 18.5t18.5 45.5t-18.5 45.5t-45.5 18.5v0zM320 448h-192q-27 0 -45.5 -18.5t-18.5 -45.5t18.5 -45.5t45.5 -18.5h192q27 0 45.5 18.5t18.5 45.5t-18.5 45.5t-45.5 18.5v0z
M693 475q-19 -19 -45.5 -19t-45.5 19v0q-18 18 -18 44.5t18 45.5l136 136q19 19 45.5 19t45.5 -19v0q19 -19 19 -45.5t-19 -45.5zM421 293q-18 19 -44.5 19t-45.5 -19l-136 -135q-19 -19 -19 -45.5t19 -45.5t45.5 -19t45.5 19l135 136q19 19 19 45.5t-19 44.5v0zM829 158
l-136 136q-19 18 -45.5 18t-45 -18.5t-18.5 -45t18 -45.5l136 -136q19 -19 45.5 -19t45.5 19t19 45.5t-19 45.5v0zM421 565l-135 136q-19 19 -45.5 19t-45.5 -19t-19 -45.5t19 -45.5l136 -136q19 -18 45.5 -18t45 18.5t18.5 45t-19 45.5v0z" />
    <glyph glyph-name="loadc7" unicode="&#xe81d;" 
d="M960 444q-5 28 -11 51q-9 34 -22 64q-26 64 -71 117q-49 58 -114 96q-63 37 -136 52q-39 8 -75 8q-30 0 -59 -2q-77 -8 -148 -41q-60 -29 -110 -73t-84 -100q-40 -65 -55 -135q-13 -60 -10 -116q2 -61 19 -112q11 -37 26 -67q16 -32 37 -62q42 -58 100 -101
q59 -43 129 -66q74 -23 151 -21q76 3 145 29q68 27 123 73q25 21 50 52q25 30 42 60q14 26 25 57q7 17 10 29t7 32q5 28 3 52q-3 -18 -5 -22q-3 -12 -8 -25q-4 -13 -22 -51q-13 -30 -33 -62q-11 -18 -21 -30q-8 -11 -23 -28q-25 -27 -54 -48q-31 -23 -64 -39
q-68 -33 -145 -40q-79 -6 -153 16q-71 21 -130 65q-57 44 -96 104q-40 60 -56 134q-4 18 -6 38q-2 19 -3 33q-1 34 5 68q11 76 48 140q33 58 84 103t114 70q35 14 74 22q23 4 39 5q4 0 10 0.5t9 0.5h4.5h3.5q68 1 129 -18q67 -21 123 -66q57 -46 94 -111q30 -55 43 -117
q2 -9 6 -28q2 -14 13 -21q12 -8 25.5 -4t19.5 17q4 9 3 18z" />
    <glyph glyph-name="loadd8" unicode="&#xe81e;" 
d="M864 416h-160q-13 0 -22.5 -9.5t-9.5 -22.5t9.5 -22.5t22.5 -9.5h160q13 0 22.5 9.5t9.5 22.5t-9.5 22.5t-22.5 9.5zM352 384q0 13 -9.5 22.5t-22.5 9.5h-160q-13 0 -22.5 -9.5t-9.5 -22.5t9.5 -22.5t22.5 -9.5h160q13 0 22.5 9.5t9.5 22.5zM512 224q-13 0 -22.5 -9.5
t-9.5 -22.5v-160q0 -13 9.5 -22.5t22.5 -9.5t22.5 9.5t9.5 22.5v160q0 13 -9.5 22.5t-22.5 9.5zM512 768q-13 0 -22.5 -9.5t-9.5 -22.5v-160q0 -13 9.5 -22.5t22.5 -9.5t22.5 9.5t9.5 22.5v160q0 13 -9.5 22.5t-22.5 9.5zM650.5 464q6.5 -12 19.5 -15t24 3l139 80
q12 7 15 19.5t-3.5 24.5t-19 15t-24.5 -3l-139 -80q-11 -7 -14.5 -19.5t3 -24.5zM373.5 304q-6.5 12 -19.5 15t-24 -3l-139 -80q-12 -7 -15 -19.5t3.5 -24.5t19 -15t24.5 3l139 80q11 7 14.5 19.5t-3 24.5zM636 234q-7 11 -19.5 14.5t-24.5 -3t-15 -19.5t3 -24l80 -139
q7 -11 19.5 -14.5t24.5 3t15 19.5t-3 24zM364 705q-7 11 -19.5 14.5t-24.5 -3t-15 -19.5t3 -24l80 -139q7 -11 19.5 -14.5t24.5 3t15 19.5t-3 24zM592 522.5q12 -6.5 24.5 -3t19.5 14.5l80 139q6 12 3 24.5t-15 19t-24.5 3.5t-19.5 -15l-80 -139q-6 -11 -3 -24t15 -19.5z
M432 245.5q-12 6.5 -24.5 3t-19.5 -14.5l-80 -139q-6 -12 -3 -24.5t15 -19t24.5 -3.5t19.5 15l80 139q6 11 3 24t-15 19.5zM833 236l-139 80q-11 6 -24 3t-19.5 -15t-3 -24.5t14.5 -19.5l139 -80q11 -6 24 -3t19.5 15t3 24.5t-14.5 19.5zM191 532l139 -80q11 -6 24 -3
t19.5 15t3 24.5t-14.5 19.5l-139 80q-11 6 -24 3t-19.5 -15t-3 -24.5t14.5 -19.5z" />
    <glyph glyph-name="loada7" unicode="&#xe82e;" 
d="M512 704zM384 704q0 53 37.5 90.5t90.5 37.5t90.5 -37.5t37.5 -90.5t-37.5 -90.5t-90.5 -37.5t-90.5 37.5t-37.5 90.5zM192 384zM96 384q0 40 28 68t68 28t68 -28t28 -68t-28 -68t-68 -28t-68 28t-28 68zM736 608zM720 608q0 7 4.5 11.5t11.5 4.5t11.5 -4.5t4.5 -11.5
t-4.5 -11.5t-11.5 -4.5t-11.5 4.5t-4.5 11.5zM360 681q-30 30 -72 30t-72 -30t-30 -73t30 -73t72 -30t72 30t30 73t-30 73zM832 384zM800 384q0 13 9.5 22.5t22.5 9.5t22.5 -9.5t9.5 -22.5t-9.5 -22.5t-22.5 -9.5t-22.5 9.5t-9.5 22.5zM738 158zM690 158q0 20 14 34t34 14
t34 -14t14 -34t-14 -34t-34 -14t-34 14t-14 34zM512 64zM448 64q0 26 19 45t45 19t45 -19t19 -45t-19 -45t-45 -19t-45 19t-19 45zM288 160zM208 160q0 33 23.5 56.5t56.5 23.5t56.5 -23.5t23.5 -56.5t-23.5 -56.5t-56.5 -23.5t-56.5 23.5t-23.5 56.5z" />
    <glyph glyph-name="load13" unicode="&#xe670;" 
d="M932 433l-76 -65q2 -18 2 -40q0 -96 -47 -177.5t-128.5 -128.5t-177.5 -47t-177 47t-128.5 128.5t-47.5 177.5q0 94 46 173.5t123 126.5v-142q1 -7 8 -8t12 1l323 193q7 4 7 10.5t-7 9.5l-325 184q-5 4 -11.5 3t-6.5 -8v-144q-115 -53 -185.5 -161t-70.5 -238
q0 -90 35 -171.5t94 -140t140 -93.5t170.5 -35t171 35t140 93.5t93.5 140t35 171.5q1 51 -12 105z" />
    <glyph glyph-name="load14" unicode="&#xe609;" 
d="M47 384q0 95 36.5 181t99 148.5t148.5 99t181 36.5t181 -36.5t148.5 -99t99 -148.5t36.5 -181t-36.5 -181t-99 -148.5t-148.5 -99t-181 -36.5t-181 36.5t-148.5 99t-99 148.5t-36.5 181zM1024 384q0 139 -68.5 257t-186.5 186.5t-257 68.5t-257 -68.5t-186.5 -186.5
t-68.5 -257q0 -132 62.5 -246t170.5 -184t238 -80q7 0 20.5 -1t20.5 -1q139 0 257 68.5t186.5 186.5t68.5 257zM326 337q19 0 32.5 14t13.5 33t-13.5 33t-32.5 14t-33 -14t-14 -33t14 -33t33 -14zM498.5 337q19.5 0 33 14t13.5 33t-13.5 33t-33 14t-33 -14t-13.5 -33
t13.5 -33t33 -14zM671.5 337q19.5 0 33 14t13.5 33t-13.5 33t-33 14t-33 -14t-13.5 -33t13.5 -33t33 -14z" />
    <glyph glyph-name="load15" unicode="&#xe60a;" 
d="M1021 452q-5 32 -12 59q-10 37 -24 72q-31 72 -82 133q-56 66 -129 109q-72 43 -155 59q-45 9 -86 10q-34 0 -67 -3q-87 -9 -168 -47q-69 -32 -125 -82t-96 -114q-45 -74 -62 -154q-15 -68 -12 -132q3 -69 22 -127q13 -42 30 -77q18 -36 42 -69q47 -67 113 -115
q67 -50 148 -76q84 -26 171 -23t165 33q77 29 140 82q28 24 57 59t47 69q16 29 29 64q8 20 11 34q4 14 9 36q5 32 3 59l-5 -25q-4 -14 -10 -29q-5 -14 -25 -58q-15 -33 -38 -70q-12 -20 -23 -34q-9 -12 -27 -31q-28 -32 -61 -56q-36 -26 -73 -44q-77 -37 -165 -45
q-89 -8 -173 17q-81 24 -149 75q-65 49 -109 118q-46 68 -64 153q-4 20 -7 43q-2 21 -3 37q-1 39 5 78q13 86 55 159q38 66 96 117t129 80q40 16 85 24q26 5 45 7q3 0 10.5 0.5t10.5 0.5h5h4q77 1 146 -21q77 -24 140 -75q65 -52 107 -127q35 -61 50 -132q2 -11 6 -32
q2 -16 15 -24q14 -9 29.5 -4.5t22.5 19.5q4 10 2 20z" />
    <glyph glyph-name="iconfont-load-min" unicode="&#xe601;" 
d="M647 364h-39q-7 0 -13 6t-6 14t6 13.5t13 5.5h39q8 0 13.5 -5.5t5.5 -13.5t-5.5 -14t-13.5 -6zM594 438q-6 -6 -14 -6t-13.5 6t-5.5 14t6 13l27 27q6 6 13.5 6t13.5 -5.5t6 -13.5t-6 -14zM512 230q-8 0 -13.5 5.5t-5.5 13.5v39q0 8 5.5 13.5t13.5 5.5t14 -5.5t6 -13.5
v-39q0 -8 -6 -13.5t-14 -5.5zM512 461q-8 0 -13.5 5.5t-5.5 13.5v38q0 8 5.5 14t13.5 6t14 -6t6 -14v-38q0 -8 -6 -13.5t-14 -5.5zM431 275q-6 -6 -14 -6t-13.5 6t-5.5 13.5t6 13.5l27 27q5 6 13 6t14 -5.5t6 -13.5t-6 -14zM431 438l-27 27q-6 6 -6 14t5.5 13.5t13.5 5.5
t14 -6l27 -27q6 -5 6 -13t-6 -14t-14 -6t-13 6zM435 384q0 -8 -5.5 -14t-13.5 -6h-38q-8 0 -14 6t-6 14t6 13.5t14 5.5h38q8 0 13.5 -5.5t5.5 -13.5zM594 329l27 -27q6 -6 6 -13.5t-6 -13.5t-14 -6t-13 6l-27 27q-6 6 -6 14t5.5 13.5t13.5 5.5t14 -6z" />
    <glyph glyph-name="iconfont-load-min1" unicode="&#xe602;" 
d="M647 364h-39q-7 0 -13 6t-6 14t6 13.5t13 5.5h39q8 0 13.5 -5.5t5.5 -13.5t-5.5 -14t-13.5 -6zM594 438q-6 -6 -14 -6t-13.5 6t-5.5 14t6 13l27 27q6 6 13.5 6t13.5 -5.5t6 -13.5t-6 -14zM512 230q-8 0 -13.5 5.5t-5.5 13.5v39q0 8 5.5 13.5t13.5 5.5t14 -5.5t6 -13.5
v-39q0 -8 -6 -13.5t-14 -5.5zM512 461q-8 0 -13.5 5.5t-5.5 13.5v38q0 8 5.5 14t13.5 6t14 -6t6 -14v-38q0 -8 -6 -13.5t-14 -5.5zM431 275q-6 -6 -14 -6t-13.5 6t-5.5 13.5t6 13.5l27 27q5 6 13 6t14 -5.5t6 -13.5t-6 -14zM431 438l-27 27q-6 6 -6 14t5.5 13.5t13.5 5.5
t14 -6l27 -27q6 -5 6 -13t-6 -14t-14 -6t-13 6zM435 384q0 -8 -5.5 -14t-13.5 -6h-38q-8 0 -14 6t-6 14t6 13.5t14 5.5h38q8 0 13.5 -5.5t5.5 -13.5zM594 329l27 -27q6 -6 6 -13.5t-6 -13.5t-14 -6t-13 6l-27 27q-6 6 -6 14t5.5 13.5t13.5 5.5t14 -6z" />
    <glyph glyph-name="iconfont-load-min2" unicode="&#xe604;" 
d="M647 364h-39q-7 0 -13 6t-6 14t6 13.5t13 5.5h39q8 0 13.5 -5.5t5.5 -13.5t-5.5 -14t-13.5 -6zM594 438q-6 -6 -14 -6t-13.5 6t-5.5 14t6 13l27 27q6 6 13.5 6t13.5 -5.5t6 -13.5t-6 -14zM512 230q-8 0 -13.5 5.5t-5.5 13.5v39q0 8 5.5 13.5t13.5 5.5t14 -5.5t6 -13.5
v-39q0 -8 -6 -13.5t-14 -5.5zM512 461q-8 0 -13.5 5.5t-5.5 13.5v38q0 8 5.5 14t13.5 6t14 -6t6 -14v-38q0 -8 -6 -13.5t-14 -5.5zM431 275q-6 -6 -14 -6t-13.5 6t-5.5 13.5t6 13.5l27 27q5 6 13 6t14 -5.5t6 -13.5t-6 -14zM431 438l-27 27q-6 6 -6 14t5.5 13.5t13.5 5.5
t14 -6l27 -27q6 -5 6 -13t-6 -14t-14 -6t-13 6zM435 384q0 -8 -5.5 -14t-13.5 -6h-38q-8 0 -14 6t-6 14t6 13.5t14 5.5h38q8 0 13.5 -5.5t5.5 -13.5zM594 329l27 -27q6 -6 6 -13.5t-6 -13.5t-14 -6t-13 6l-27 27q-6 6 -6 14t5.5 13.5t13.5 5.5t14 -6z" />
    <glyph glyph-name="iconfont-load-min3" unicode="&#xe605;" 
d="M647 364h-39q-7 0 -13 6t-6 14t6 13.5t13 5.5h39q8 0 13.5 -5.5t5.5 -13.5t-5.5 -14t-13.5 -6zM594 438q-6 -6 -14 -6t-13.5 6t-5.5 14t6 13l27 27q6 6 13.5 6t13.5 -5.5t6 -13.5t-6 -14zM512 230q-8 0 -13.5 5.5t-5.5 13.5v39q0 8 5.5 13.5t13.5 5.5t14 -5.5t6 -13.5
v-39q0 -8 -6 -13.5t-14 -5.5zM512 461q-8 0 -13.5 5.5t-5.5 13.5v38q0 8 5.5 14t13.5 6t14 -6t6 -14v-38q0 -8 -6 -13.5t-14 -5.5zM431 275q-6 -6 -14 -6t-13.5 6t-5.5 13.5t6 13.5l27 27q5 6 13 6t14 -5.5t6 -13.5t-6 -14zM431 438l-27 27q-6 6 -6 14t5.5 13.5t13.5 5.5
t14 -6l27 -27q6 -5 6 -13t-6 -14t-14 -6t-13 6zM435 384q0 -8 -5.5 -14t-13.5 -6h-38q-8 0 -14 6t-6 14t6 13.5t14 5.5h38q8 0 13.5 -5.5t5.5 -13.5zM594 329l27 -27q6 -6 6 -13.5t-6 -13.5t-14 -6t-13 6l-27 27q-6 6 -6 14t5.5 13.5t13.5 5.5t14 -6z" />
    <glyph glyph-name="iconfont-load-min4" unicode="&#xe606;" 
d="M647 364h-39q-7 0 -13 6t-6 14t6 13.5t13 5.5h39q8 0 13.5 -5.5t5.5 -13.5t-5.5 -14t-13.5 -6zM594 438q-6 -6 -14 -6t-13.5 6t-5.5 14t6 13l27 27q6 6 13.5 6t13.5 -5.5t6 -13.5t-6 -14zM512 230q-8 0 -13.5 5.5t-5.5 13.5v39q0 8 5.5 13.5t13.5 5.5t14 -5.5t6 -13.5
v-39q0 -8 -6 -13.5t-14 -5.5zM512 461q-8 0 -13.5 5.5t-5.5 13.5v38q0 8 5.5 14t13.5 6t14 -6t6 -14v-38q0 -8 -6 -13.5t-14 -5.5zM431 275q-6 -6 -14 -6t-13.5 6t-5.5 13.5t6 13.5l27 27q5 6 13 6t14 -5.5t6 -13.5t-6 -14zM431 438l-27 27q-6 6 -6 14t5.5 13.5t13.5 5.5
t14 -6l27 -27q6 -5 6 -13t-6 -14t-14 -6t-13 6zM435 384q0 -8 -5.5 -14t-13.5 -6h-38q-8 0 -14 6t-6 14t6 13.5t14 5.5h38q8 0 13.5 -5.5t5.5 -13.5zM594 329l27 -27q6 -6 6 -13.5t-6 -13.5t-14 -6t-13 6l-27 27q-6 6 -6 14t5.5 13.5t13.5 5.5t14 -6z" />
    <glyph glyph-name="shangchuantupian" unicode="&#xe631;" 
d="M1004 876v-986h-984v986h984zM1024 896h-1024v-1024h1024v1024zM1024 896zM256 397h512v-26h-512v26zM256 397zM499 640h26v-512h-26v512zM499 640z" />
    <glyph glyph-name="load_connection" unicode="&#xe61d;" 
d="M410 -53q-9 0 -17 2q-147 40 -239.5 161.5t-92.5 273.5t92.5 273.5t239.5 161.5q25 7 47 -6t28.5 -37.5t-6 -46.5t-36.5 -29q-107 -29 -174.5 -117t-67.5 -199t67.5 -199t174.5 -117q24 -7 37 -29t6 -47q-6 -20 -22.5 -32.5t-36.5 -12.5zM614 -53q-20 0 -36.5 12.5
t-22.5 32.5q-6 25 6.5 47t36.5 29q107 29 174.5 117t67.5 199t-67.5 199t-174.5 117q-24 7 -37 29t-6 46.5t29 37.5t47 6q146 -40 239 -161.5t93 -273.5t-92.5 -273.5t-239.5 -161.5q-8 -2 -17 -2z" />
    <glyph glyph-name="loading" unicode="&#xe503;" 
d="M960 444q-5 28 -11 51q-9 34 -22 64q-26 64 -71 117q-49 58 -114 96q-63 37 -136 52q-39 8 -75 8q-30 0 -59 -2q-77 -8 -148 -41q-60 -29 -110 -73t-84 -100q-40 -65 -55 -135q-13 -60 -10 -116q2 -61 19 -112q11 -37 26 -67q16 -32 37 -62q42 -58 100 -101
q59 -43 129 -66q74 -23 151 -21q76 3 145 29q68 27 123 73q25 21 50 52q25 30 42 60q14 26 25 57q7 17 10 29t7 32q5 28 3 52q-3 -18 -5 -22q-3 -12 -8 -25q-4 -13 -22 -51q-13 -30 -33 -62q-11 -18 -21 -30q-8 -11 -23 -28q-25 -27 -54 -48q-31 -23 -64 -39
q-68 -33 -145 -40q-79 -6 -153 16q-71 21 -130 65q-57 44 -96 104q-40 60 -56 134q-4 18 -6 38q-2 19 -3 33q-1 34 5 68q11 76 48 140q33 58 84 103t114 70q35 14 74 22q23 4 39 5q4 0 10 0.5t9 0.5h4.5h3.5q68 1 129 -18q67 -21 123 -66q57 -46 94 -111q30 -55 43 -117
q2 -9 6 -28q2 -14 13 -21q12 -8 25.5 -4t19.5 17q4 9 3 18z" />
    <glyph glyph-name="load16" unicode="&#xe6a4;" 
d="M144 693.5q0 -56.5 40 -96.5t96.5 -40t97 40t40.5 96.5t-40.5 96.5t-97 40t-96.5 -40t-40 -96.5zM42 403v0q0 -49 35 -84t84.5 -35t84.5 35t35 84v0q0 50 -35 85t-84.5 35t-84.5 -35t-35 -85zM144 147v0q0 -43 30 -73t72.5 -30t72.5 30t30 73v0q0 42 -30 72t-72.5 30
t-72.5 -30t-30 -72zM435 34v0q0 -37 26.5 -63.5t63.5 -26.5t63 26.5t26 63.5v0q0 37 -26 63.5t-63 26.5t-63.5 -26.5t-26.5 -63.5zM725 130v0q0 -36 25 -61t60.5 -25t60.5 25t25 61v0v0q0 35 -25 60t-60.5 25t-60.5 -25t-25 -60v0zM862 420q0 -28 20 -48t48 -20t48 20t20 48
t-20 48t-48 20t-48 -20t-20 -48zM759 676v0q0 -21 15 -36t36.5 -15t36.5 15t15 36v0v0q0 22 -15 37t-36.5 15t-36.5 -15t-15 -37v0zM512 811v0q0 -15 10 -25t24 -10t24 10t10 25v0v0q0 14 -10 24t-24 10t-24 -10t-10 -24v0z" />
    <glyph glyph-name="load17" unicode="&#xe653;" 
d="M413 667.5q0 42.5 30 72.5t72.5 30t72.5 -30t30 -72.5t-30 -72.5t-72.5 -30t-72.5 30t-30 72.5zM631 577.5q0 42.5 30 72.5t72 30t72 -30t30 -72.5t-30 -72.5t-72 -30t-72 30t-30 72.5zM772 360.5q0 21.5 15 36.5t36 15t36 -15t15 -36.5t-15 -36.5t-36 -15t-36 15
t-15 36.5zM682 143.5q0 21.5 15 36t36 14.5t36 -14.5t15 -36t-15 -36.5t-36 -15t-36 15t-15 36.5zM465 53.5q0 21.5 15 36.5t36 15t36 -15t15 -36.5t-15 -36.5t-36 -15t-36 15t-15 36.5zM247 143.5q0 21.5 15 36t36.5 14.5t36.5 -14.5t15 -36t-15 -36.5t-36.5 -15t-36.5 15
t-15 36.5zM222 578q0 32 22.5 54.5t54 22.5t54 -22.5t22.5 -54.5t-22.5 -54.5t-54 -22.5t-54 22.5t-22.5 54.5zM151 360.5q0 23.5 17 40.5t40.5 17t40.5 -17t17 -40.5t-17 -40.5t-40.5 -17t-40.5 17t-17 40.5z" />
    <glyph glyph-name="load18" unicode="&#xe654;" 
d="M801 132q8 8 9 10q1 1 12 15l10 15q1 1 8 12l12 20l2.5 5t1.5 5q8 15 12 24q0 1 1 4t2 5q7 18 9 25q1 4 2.5 9.5t1.5 6.5q5 19 5 20q12 59 5 121q0 2 -1 5q-6 42 -20 81l12 -40v0q-4 19 -5 22q-6 19 -23.5 28t-36.5 4q-17 -6 -26 -21t-6 -33h-2q7 -20 11 -42v-5
q4 -21 4 -45q0 -29 -6 -58q0 -2 -1.5 -6.5t-2.5 -6.5l-1 -4.5t-2 -7.5q-1 -6 -7 -19q0 -1 -0.5 -3t-1.5 -3q-19 -46 -52 -81l40 55q-30 -52 -75 -90l61 67v-1q-1 -1 -8 -11l-3.5 -4.5t-5.5 -6.5q-1 -2 -3.5 -4.5l-3.5 -3.5q-9 -11 -12 -13l-2.5 -2.5l-2.5 -2.5
q-43 -42 -99 -63l79 46v0q-42 -35 -95 -50l70 32v0q-12 -8 -16 -10q-54 -30 -119 -34h1h2h1h1l1 1h1h1h1h1l15 2v0q-2 0 -3 -1q-10 -1 -11 -1q-14 -2 -30 -2q-30 0 -58 6q-1 0 -14 4q-1 0 -5 1t-6 2q-6 2 -20 7q-1 0 -3 1t-3 1q-49 21 -87 57l62 -45q-4 2 -16 9l-3.5 2t-5 3
t-11.5 9q-10 7 -11 8q-2 1 -4.5 4t-3.5 3q-10 9 -13 12q-1 1 -2.5 3t-2.5 3q-9 8 -14 14q0 1 -4 6q-8 11 -12 16q-1 2 -3 5.5t-3 4.5q-7 11 -9 14q-30 54 -34 118q0 -3 1 -8l2 -16v1v2q-1 2 -1.5 5.5t-0.5 6.5q-2 13 -2 28q0 30 7 59q0 2 1.5 7.5t1.5 7.5q1 1 1.5 4.5
t1.5 5.5q2 8 7 20q1 1 1.5 3t0.5 3q3 8 9 19q1 1 2 3t1 3q3 5 9 16q1 1 3 4t3 4q1 3 8 12l3.5 4.5t4.5 6.5l4.5 4.5l3.5 3.5q9 11 11 13l3 3t3 2q11 10 15 14q1 1 2.5 2t2.5 2q11 8 17 12q1 1 4.5 3t4.5 3q11 7 14 9q51 28 110 33l-27 -4q6 1 13 2q20 3 43 3h6l-1 2
q18 2 29.5 15.5t12.5 30.5q0 20 -14 34t-34 14q-4 0 -23 -1v0h-0.5h-1.5q-33 -2 -64 -9l20 4q-86 -16 -155 -66l25 17l-2 -2l-14 -8q-7 -5 -22 -17q-1 -1 -3.5 -2.5t-3.5 -3.5q-63 -53 -98 -125l70 101v-1q-54 -56 -81 -129l57 103l-1 -1q-2 -3 -11.5 -15.5t-11 -15t-4 -6.5
t-2.5 -5l-12 -20q-1 -2 -2.5 -5.5t-2.5 -4.5q-32 -62 -41 -135l27 102v0q-7 -17 -10 -26q0 -3 -1.5 -8.5t-1.5 -6.5q-5 -16 -6 -20q-7 -36 -7 -76q0 -21 2 -41l3 -18q0 -1 1 -7.5t1 -9.5q17 -84 67 -152q-6 9 -13 21l-7 10l1 -1q1 -2 1 -3q8 -13 10 -14q5 -8 16 -22
q1 -1 2.5 -3.5t3.5 -4.5q6 -7 18 -20q1 -1 3 -3.5t4 -3.5q5 -6 17 -16q1 -1 4.5 -4t6 -5l5 -4t5.5 -4t5 -3q12 -10 14.5 -11.5t7 -4t5.5 -3.5l20 -12q1 0 4.5 -2t4.5 -2q15 -8 24 -11q2 -1 5 -2t4 -2q18 -7 26 -9q3 -1 9 -2.5t7 -1.5q18 -5 19 -5q36 -8 76 -8q21 0 41 2
q3 1 9.5 2t8.5 1q1 1 7.5 1.5t9.5 1.5q84 17 152 67q-12 -8 -25 -16l-6 -4h1l2.5 2.5t6.5 3.5t8 5q8 5 22 17q1 0 3.5 2t4.5 3q54 46 84 109l-57 -84v0q5 5 16 18v0z" />
    <glyph glyph-name="gi_load_n" unicode="&#xe632;" 
d="M396 712.5q0 49.5 35 84.5t84.5 35t84.5 -35t35 -84.5t-35 -84.5t-84.5 -35t-84.5 35t-35 84.5zM650 607.5q0 49.5 35 84.5t84.5 35t84.5 -35t35 -84.5t-35 -84.5t-84.5 -35t-84.5 35t-35 84.5zM814 354q0 25 17.5 42.5t42.5 17.5t42.5 -17.5t17.5 -42.5t-17.5 -42.5
t-42.5 -17.5t-42.5 17.5t-17.5 42.5zM709 100.5q0 24.5 17.5 42t42.5 17.5t42.5 -17.5t17.5 -42t-17.5 -42t-42.5 -17.5t-42.5 17.5t-17.5 42zM456 -4.5q0 24.5 17.5 42t42 17.5t42 -17.5t17.5 -42t-17.5 -42t-42 -17.5t-42 17.5t-17.5 42zM203 100.5q0 24.5 17.5 42
t42 17.5t42 -17.5t17.5 -42t-17.5 -42t-42 -17.5t-42 17.5t-17.5 42zM173 607.5q0 37.5 26 63.5t63 26t63.5 -26t26.5 -63.5t-26.5 -63.5t-63.5 -26t-63 26t-26 63.5zM90 354q0 28 19.5 47.5t47.5 19.5t47.5 -19.5t19.5 -47.5t-19.5 -47.5t-47.5 -19.5t-47.5 19.5
t-19.5 47.5z" />
  </font>
</defs>
</svg>
